<?xml version="1.0" encoding="utf-8"?>
<!-- Generator: Adobe Illustrator 25.0.0, SVG Export Plug-In . SVG Version: 6.00 Build 0)  -->
<svg version="1.1" id="Layer_1" xmlns="http://www.w3.org/2000/svg" xmlns:xlink="http://www.w3.org/1999/xlink" x="0px" y="0px"
	 viewBox="0 0 100 100" style="enable-background:new 0 0 100 100;" xml:space="preserve">
<g>
	<path d="M1,36.03c0.24-1.41,0.41-2.83,0.73-4.22C4.7,18.55,15.01,9.01,28.43,7.07c15.93-2.3,31.42,8.25,35.09,23.92
		c0.03,0.12,0.03,0.24,0.05,0.43c-9.65,1.18-17.71,5.35-23.93,12.8c-6.21,7.43-8.84,16.09-8.3,25.96c-1.52-0.19-3.05-0.25-4.51-0.58
		C13.44,66.57,5.03,58.39,1.71,45.04C1.37,43.66,1.23,42.22,1,40.81C1,39.22,1,37.62,1,36.03z"/>
	<path d="M66.65,1c1.46,0.29,2.95,0.49,4.38,0.87c10.68,2.87,18.2,11.83,19.21,22.84c0.03,0.28,0.08,0.55,0.17,1.09
		c0.91-0.95,1.66-1.77,2.44-2.55c0.89-0.89,1.56-0.88,2.47,0c0.59,0.58,1.19,1.16,1.75,1.76c0.63,0.68,0.65,1.47,0,2.13
		c-2.53,2.56-5.07,5.12-7.64,7.64c-1.11,1.09-2.78,1.11-3.9,0.02c-2.58-2.51-5.12-5.07-7.65-7.63c-0.72-0.72-0.69-1.43,0.02-2.19
		c0.59-0.63,1.2-1.24,1.82-1.83c0.79-0.75,1.49-0.76,2.26,0c0.77,0.75,1.49,1.56,2.23,2.34c0.1-0.04,0.19-0.08,0.29-0.12
		c-0.1-0.78-0.15-1.58-0.3-2.35C82.39,13.7,74.17,6.87,64.66,6.76c-3.14-0.04-3.13-0.04-3.15-3.24C61.5,2.54,61.49,1.6,62.44,1
		C63.85,1,65.25,1,66.65,1z"/>
	<path d="M35.61,67.32C35.58,49.8,49.72,35.64,67.27,35.61C84.78,35.58,98.99,49.76,99,67.27C99.01,84.77,84.82,98.99,67.32,99
		C49.81,99.02,35.63,84.85,35.61,67.32z"/>
</g>
</svg>
