<?xml version="1.0" encoding="utf-8"?>
<!-- Generator: Adobe Illustrator 25.0.0, SVG Export Plug-In . SVG Version: 6.00 Build 0)  -->
<svg version="1.1" id="Layer_1" xmlns="http://www.w3.org/2000/svg" xmlns:xlink="http://www.w3.org/1999/xlink" x="0px" y="0px"
	 viewBox="0 0 100 100" style="enable-background:new 0 0 100 100;" xml:space="preserve">
<g>
	<path d="M45.77,0.97c0,0.59,0,1.04,0,1.48c0,15.53,0.02,31.06-0.02,46.59c-0.01,1.88,0.61,3.32,1.93,4.64
		C58.71,64.67,69.71,75.69,80.72,86.7c0.29,0.29,0.66,0.51,1.01,0.78c-14.68,12.65-38.16,16.22-57.66,4.09
		C4.81,79.58-3.74,55.65,3.63,34.1C7.27,23.44,13.85,14.98,23.27,8.79C30.06,4.32,37.53,1.75,45.77,0.97z"/>
	<path d="M98.99,45.39c-14.72,0-29.44,0-44.24,0c0-14.73,0-29.5,0-44.28C77.79,2.53,97.63,22.67,98.99,45.39z"/>
	<path d="M88.11,81.08c-8.93-8.93-17.83-17.82-26.69-26.68c12.45,0,25.01,0,37.58,0C98.79,61.65,95.14,72.92,88.11,81.08z"/>
</g>
</svg>
