<?xml version="1.0" encoding="utf-8"?>
<!-- Generator: Adobe Illustrator 25.0.0, SVG Export Plug-In . SVG Version: 6.00 Build 0)  -->
<svg version="1.1" id="Layer_1" xmlns="http://www.w3.org/2000/svg" xmlns:xlink="http://www.w3.org/1999/xlink" x="0px" y="0px"
	 viewBox="0 0 100 100" style="enable-background:new 0 0 100 100;" xml:space="preserve">
<path d="M50.05,6.24c6.3,0,12.61,0.01,18.91,0c4.19-0.01,7.31,1.76,9.42,5.41c6.31,10.93,12.64,21.86,19,32.77
	c2.16,3.71,2.16,7.32,0.01,11.03c-6.37,10.98-12.71,21.98-19.05,32.98c-2.06,3.57-5.15,5.34-9.25,5.34c-12.71,0-25.42,0-38.13,0
	c-4.1,0-7.2-1.75-9.27-5.32C15.33,77.46,8.97,66.47,2.59,55.5c-2.11-3.63-2.12-7.21-0.01-10.85c6.38-11.01,12.74-22.04,19.1-33.07
	c2.06-3.57,5.14-5.34,9.25-5.34C37.3,6.24,43.67,6.24,50.05,6.24z M50.03,66.53c9.11,0.01,16.51-7.43,16.51-16.6
	c0-9.02-7.44-16.45-16.45-16.45c-9.14,0-16.59,7.34-16.62,16.4C33.45,59.09,40.83,66.52,50.03,66.53z"/>
</svg>
