<?xml version="1.0" encoding="utf-8"?>
<!-- Generator: Adobe Illustrator 25.0.0, SVG Export Plug-In . SVG Version: 6.00 Build 0)  -->
<svg version="1.1" id="Layer_1" xmlns="http://www.w3.org/2000/svg" xmlns:xlink="http://www.w3.org/1999/xlink" x="0px" y="0px"
	 viewBox="0 0 100 100" style="enable-background:new 0 0 100 100;" xml:space="preserve">
<g>
	<path d="M99,38.87c-0.12,0.42-0.23,0.85-0.35,1.27c-0.94,3.47-3.82,5.76-7.39,5.87c-0.22,0.01-0.45,0.01-0.67,0.01
		c-26.54,0-53.09,0-79.63,0c-4.55,0-8.05-2.38-9.44-6.41c-0.2-0.57-0.41-1.17-0.41-1.76c-0.01-3.19-0.24-6.42,0.14-9.56
		c0.51-4.19,4.38-7.29,8.79-7.58c0.48-0.03,0.96-0.03,1.43-0.03c14.77,0,29.54,0,44.32,0c0.38,0,0.76,0,1.3,0c0-0.37,0-0.71,0-1.04
		c0-2.56-0.01-5.12,0-7.67c0.01-3.51,1.81-6.3,4.87-7.57c3.13-1.3,6.34-0.63,8.85,1.92C79.38,15,87.92,23.71,96.5,32.39
		c1.38,1.4,2.1,3.08,2.5,4.95C99,37.85,99,38.36,99,38.87z"/>
	<path d="M99,71.1c-0.16,0.54-0.3,1.09-0.47,1.63c-1.24,3.79-4.58,6.33-8.67,6.57c-0.45,0.03-0.89,0.02-1.34,0.02
		c-14.74,0-29.48,0-44.22,0c-0.41,0-0.83,0-1.4,0c0,0.37,0,0.7,0,1.04c0,2.56,0.01,5.12,0,7.67c-0.01,3.52-1.81,6.3-4.87,7.57
		c-3.12,1.3-6.33,0.63-8.85-1.92C20.58,84.98,12,76.26,3.44,67.53c-2.46-2.51-3.1-5.48-1.73-8.73c1.36-3.2,3.88-4.82,7.36-4.82
		c26.74-0.01,53.47-0.01,80.21,0c4.89,0,8.52,3,9.55,7.76c0.04,0.18,0.11,0.36,0.17,0.54C99,65.22,99,68.16,99,71.1z"/>
</g>
</svg>
