<?xml version="1.0" standalone="no"?>
<!DOCTYPE svg PUBLIC "-//W3C//DTD SVG 20010904//EN"
 "http://www.w3.org/TR/2001/REC-SVG-20010904/DTD/svg10.dtd">
<svg version="1.0" xmlns="http://www.w3.org/2000/svg"
 width="512.000000pt" height="512.000000pt" viewBox="0 0 512.000000 512.000000"
 preserveAspectRatio="xMidYMid meet">

<g transform="translate(0.000000,512.000000) scale(0.100000,-0.100000)"
fill="#000000" stroke="none">
<path d="M3189 5101 c-23 -18 -24 -26 -24 -131 0 -105 1 -113 24 -131 19 -15
39 -19 105 -19 485 0 898 -307 1031 -765 13 -47 27 -116 31 -153 l7 -67 -80
78 c-107 103 -115 103 -216 -2 -59 -60 -77 -85 -77 -107 0 -23 38 -66 223
-250 191 -191 228 -224 265 -234 81 -21 95 -12 339 232 270 270 264 255 149
366 -98 96 -105 95 -211 -9 -88 -85 -95 -86 -95 -12 0 56 -37 224 -71 320 -89
252 -260 482 -479 643 -103 75 -294 171 -412 204 -116 33 -274 56 -391 56 -78
0 -99 -3 -118 -19z"/>
<path d="M1480 4809 c-309 -35 -601 -154 -845 -344 -101 -79 -253 -237 -328
-343 -209 -292 -318 -659 -304 -1017 18 -437 181 -810 487 -1115 132 -131 258
-222 425 -305 197 -98 392 -154 590 -171 l80 -6 1 168 c4 624 312 1195 834
1546 237 158 488 252 813 303 37 6 38 7 31 38 -13 65 -67 215 -108 302 -300
638 -982 1022 -1676 944z"/>
<path d="M3219 3295 c-176 -28 -333 -77 -484 -152 -466 -233 -786 -647 -895
-1158 -31 -143 -38 -411 -16 -561 152 -1031 1196 -1670 2179 -1333 513 176
926 621 1062 1146 57 220 69 489 30 706 -126 703 -686 1247 -1389 1352 -126
18 -367 18 -487 0z"/>
</g>
</svg>
