<?xml version="1.0" standalone="no"?>
<!DOCTYPE svg PUBLIC "-//W3C//DTD SVG 20010904//EN"
 "http://www.w3.org/TR/2001/REC-SVG-20010904/DTD/svg10.dtd">
<svg version="1.0" xmlns="http://www.w3.org/2000/svg"
 width="512.000000pt" height="512.000000pt" viewBox="0 0 512.000000 512.000000"
 preserveAspectRatio="xMidYMid meet">

<g transform="translate(0.000000,512.000000) scale(0.100000,-0.100000)"
fill="#000000" stroke="none">
<path d="M346 4304 c-158 -38 -293 -175 -331 -335 -22 -97 -22 -2721 0 -2818
39 -163 173 -297 336 -336 56 -13 327 -15 2205 -15 1397 0 2160 4 2194 10 121
23 247 114 310 225 62 108 60 49 60 1525 0 1475 2 1417 -60 1524 -64 112 -189
204 -309 226 -35 7 -800 10 -2200 9 -1822 -1 -2155 -3 -2205 -15z m1040 -817
c77 -36 145 -104 181 -182 28 -60 28 -61 28 -265 0 -204 0 -205 -28 -266 -36
-77 -104 -145 -182 -181 -60 -28 -61 -28 -265 -28 -204 0 -205 0 -265 28 -78
36 -146 104 -182 181 -28 61 -28 62 -28 266 0 204 0 205 28 265 32 69 94 137
152 167 82 43 112 48 310 45 185 -2 192 -3 251 -30z m2745 -92 c44 -23 149
-162 207 -273 103 -200 136 -336 136 -562 0 -222 -32 -360 -131 -553 -54 -105
-156 -243 -203 -274 -65 -44 -173 -24 -215 40 -49 76 -39 131 45 242 74 98
133 214 161 320 18 65 22 107 22 225 0 118 -4 160 -22 225 -28 106 -87 222
-161 320 -84 111 -94 166 -45 242 39 59 139 82 206 48z m-389 -403 c85 -50
178 -276 178 -432 0 -202 -123 -435 -239 -455 -54 -9 -126 25 -159 75 -34 50
-28 129 15 190 17 25 38 67 47 93 32 93 15 197 -47 287 -43 61 -49 140 -15
190 32 49 102 83 152 75 22 -3 52 -13 68 -23z"/>
</g>
</svg>
