<?xml version="1.0" standalone="no"?>
<!DOCTYPE svg PUBLIC "-//W3C//DTD SVG 20010904//EN"
 "http://www.w3.org/TR/2001/REC-SVG-20010904/DTD/svg10.dtd">
<svg version="1.0" xmlns="http://www.w3.org/2000/svg"
 width="512.000000pt" height="512.000000pt" viewBox="0 0 512.000000 512.000000"
 preserveAspectRatio="xMidYMid meet">

<g transform="translate(0.000000,512.000000) scale(0.100000,-0.100000)"
fill="#000000" stroke="none">
<path d="M1880 4869 c-557 -63 -1065 -381 -1358 -851 -253 -406 -339 -889
-242 -1357 85 -408 323 -795 646 -1052 93 -73 194 -142 200 -136 2 2 -8 52
-22 111 l-27 107 -76 64 c-361 303 -574 736 -598 1215 -9 204 18 393 87 603
167 500 557 891 1058 1057 152 50 237 68 405 82 302 26 605 -35 887 -178 205
-105 375 -238 517 -405 l74 -87 106 -26 c58 -15 108 -25 110 -22 6 6 -62 105
-136 199 -383 482 -1017 745 -1631 676z"/>
<path d="M1933 4560 c-666 -69 -1203 -544 -1343 -1190 -76 -346 -29 -699 137
-1023 63 -123 170 -271 260 -359 l58 -57 -3 111 c-9 265 51 572 158 820 22 50
40 93 40 95 0 2 -13 3 -29 3 -22 0 -31 -6 -41 -30 -28 -68 -129 -130 -212
-130 -82 0 -174 58 -216 134 -23 42 -23 170 0 212 42 76 134 134 216 134 83 0
184 -62 212 -130 12 -30 13 -30 89 -29 l76 1 52 79 52 79 -55 0 c-45 0 -59 4
-79 25 -23 22 -25 31 -25 128 l0 105 -30 12 c-42 17 -104 90 -118 138 -34 112
17 233 121 289 43 24 170 24 213 1 76 -42 134 -134 134 -216 0 -83 -62 -184
-130 -212 -28 -11 -30 -16 -30 -61 l0 -49 66 0 67 0 87 84 c84 81 256 215 313
245 26 14 27 18 27 91 0 77 0 78 -30 90 -42 17 -104 90 -118 138 -34 112 17
233 121 289 43 24 170 24 213 1 76 -42 134 -134 134 -216 0 -83 -62 -184 -130
-212 -24 -10 -30 -19 -30 -41 0 -16 1 -29 3 -29 2 0 45 18 95 40 248 107 554
167 821 158 l113 -3 -89 85 c-298 285 -758 443 -1170 400z"/>
<path d="M2025 4215 c-50 -49 -15 -135 55 -135 41 0 80 39 80 80 0 41 -39 80
-80 80 -19 0 -40 -9 -55 -25z"/>
<path d="M2805 3904 c-524 -70 -986 -354 -1283 -787 -576 -840 -354 -1995 493
-2562 625 -419 1430 -417 2056 4 641 431 943 1228 750 1979 -210 816 -957
1389 -1803 1381 -62 -1 -158 -7 -213 -15z m448 -159 c983 -129 1639 -1063
1426 -2030 -59 -264 -194 -531 -378 -742 -226 -260 -558 -457 -896 -532 -514
-113 -1038 15 -1445 355 -598 499 -771 1351 -416 2047 322 631 1009 994 1709
902z"/>
<path d="M2895 3594 c-406 -58 -664 -182 -926 -443 -230 -231 -366 -487 -425
-806 -26 -138 -26 -392 0 -530 59 -319 194 -574 425 -806 231 -230 487 -366
806 -425 138 -26 392 -26 530 0 320 60 574 194 806 425 231 231 366 487 425
806 25 135 26 402 1 530 -123 628 -588 1101 -1206 1226 -92 19 -366 33 -436
23z m405 -343 c398 -91 721 -373 865 -756 33 -87 33 -128 -1 -154 -25 -20 -40
-21 -218 -21 -153 0 -196 3 -213 15 -12 8 -40 48 -62 90 -76 138 -228 272
-369 325 -203 77 -439 59 -622 -47 -36 -21 -103 -76 -150 -123 -68 -68 -94
-102 -127 -170 -73 -147 -97 -292 -73 -437 73 -457 539 -726 972 -563 141 53
293 187 369 325 22 42 50 82 62 90 17 12 60 15 213 15 178 0 193 -1 218 -21
34 -26 34 -67 1 -154 -146 -389 -476 -673 -885 -761 -106 -23 -352 -26 -455
-5 -486 96 -857 460 -961 941 -14 62 -18 127 -18 240 0 113 4 178 18 240 90
415 382 749 781 893 62 22 168 47 260 61 68 10 312 -4 395 -23z m-124 -801
c173 -84 236 -307 129 -464 -23 -34 -25 -46 -25 -147 0 -103 -1 -111 -25 -134
-24 -25 -26 -25 -215 -25 -189 0 -191 0 -215 25 -24 23 -25 31 -25 134 0 101
-2 113 -25 147 -54 80 -69 208 -33 290 38 89 116 162 202 190 61 20 172 12
232 -16z"/>
<path d="M2868 3106 c-441 -79 -782 -422 -853 -861 -50 -307 43 -626 249 -854
160 -178 372 -295 610 -336 435 -75 889 154 1087 548 l39 77 -87 0 -88 0 -45
-72 c-144 -235 -408 -388 -695 -405 -249 -14 -483 77 -664 256 -346 343 -347
896 -1 1241 292 293 734 342 1090 122 92 -57 221 -186 275 -275 l40 -66 88 -1
87 0 -31 63 c-75 149 -212 305 -348 397 -92 62 -218 118 -329 146 -121 31
-310 40 -424 20z"/>
<path d="M2975 2306 c-42 -18 -83 -69 -91 -111 -10 -53 3 -95 41 -144 34 -42
35 -47 35 -127 l0 -84 80 0 80 0 0 83 c0 81 1 85 38 132 33 43 37 54 37 106 0
62 -17 94 -67 132 -33 25 -113 32 -153 13z"/>
<path d="M1305 3815 c-50 -49 -15 -135 55 -135 41 0 80 39 80 80 0 41 -39 80
-80 80 -19 0 -40 -9 -55 -25z"/>
<path d="M905 3095 c-50 -49 -15 -135 55 -135 41 0 80 39 80 80 0 41 -39 80
-80 80 -19 0 -40 -9 -55 -25z"/>
</g>
</svg>
