<?xml version="1.0" encoding="utf-8"?>
<!-- Generator: Adobe Illustrator 24.3.0, SVG Export Plug-In . SVG Version: 6.00 Build 0)  -->
<svg version="1.1" id="Layer_1" xmlns="http://www.w3.org/2000/svg" xmlns:xlink="http://www.w3.org/1999/xlink" x="0px" y="0px"
	 viewBox="0 0 695.2 695.2" style="enable-background:new 0 0 695.2 695.2;" xml:space="preserve">
<style type="text/css">
	.st0{fill:url(#SVGID_1_);stroke:url(#SVGID_2_);stroke-miterlimit:10;}
	.st1{fill:none;stroke:#FFFFFF;stroke-width:14;stroke-miterlimit:10;}
</style>
<linearGradient id="SVGID_1_" gradientUnits="userSpaceOnUse" x1="163.8869" y1="347.3827" x2="531.4041" y2="347.3827">
	<stop  offset="0" style="stop-color:#CD2C9E"/>
	<stop  offset="1" style="stop-color:#FFD779"/>
</linearGradient>
<linearGradient id="SVGID_2_" gradientUnits="userSpaceOnUse" x1="163.3869" y1="347.3558" x2="531.9041" y2="347.3558">
	<stop  offset="0" style="stop-color:#CD2C9E"/>
	<stop  offset="1" style="stop-color:#000000"/>
</linearGradient>
<path class="st0" d="M185.6,184.9c3.2-2.9,6.4-5.7,9.7-8.3c3.4-2.7,7.7-4.2,11.7-6.1c6.9-3.3,14.3-4.9,21.9-5.6
	c2.2-0.2,4.7,1.1,6.7-0.8c0.4-0.1,0.7-0.1,1.1-0.2c0.4,0.4,0.8,0.5,1.2,0.1c13.6,0,27.2,0,40.8,0c0.3,0.3,0.6,0.3,0.9,0
	c59.4,0,118.7-0.1,178.1-0.1c1.2,0,2.5,0.2,3.7,0.3c2.4,1.4,5,0.6,7.5,0.6c11.3,1.1,21.7,5,30.9,11.1c13.3,8.9,22.7,21.3,28.1,36.6
	c2.7,7.5,3.5,15.2,3.5,23.1c-0.1,65,0,130,0,195c0,10,0,20,0,30c0.1,9.6-1.6,18.8-5.5,27.6c-4.8,10.9-12.1,20-21.3,27.4
	c-12.6,10.2-27,15.2-43.3,15.2c-76.9,0-153.9,0.2-230.8-0.1c-14.8,0-27.9-5.9-39.4-15.4c-5.2-4.3-10.1-8.9-13.8-14.7
	c-6.7-10.2-11.3-21.2-12.1-33.6c-2.3-34.3-0.9-68.6-0.8-102.9c0-23.2-0.4-46.4,0.4-69.6c0.8-20.7,0.3-41.4,0.4-62.1
	c0.1-17.5,6.5-32.2,18-44.9c0.4-0.5,0.9-0.8,1-1.5c0.3-0.4,0.5-0.7,0.8-1.1C185.2,185.2,185.4,185.1,185.6,184.9z M311.2,295.4
	c-0.5,0.2-1,0.2-1.3,0.5c-14.5,10.9-23.2,25.3-25.8,43.1c-2.2,15.5,0.7,30.5,9.4,43.6c12.6,18.9,30.5,29,53.4,30
	c5.4,0.2,10.7-0.8,15.9-1.7c5.4-1,10.7-3,15.4-5.8c6.9-4.1,13.4-8.9,18.3-15.3c2.6-3.3,6.4-5.9,7.3-10.4c2.8-4.8,5.1-9.7,6.5-15.2
	c2.5-9.3,3-18.5,1.1-28c-1.8-8.8-4.6-17.2-9.8-24.3c-11.5-16-26.6-26.3-47.1-27.8c-7.2-0.5-14.3-0.7-21.3,1
	C325.3,287.2,317.7,290.2,311.2,295.4z M431.7,403.4c-8.7,12.3-19.1,22.8-32.1,30.5c-11,6.6-23,10.9-35.6,12.7
	c-17.6,2.5-35,1.7-51.9-5c-9.3-3.7-17.9-8.6-25.8-14.6c-15.1-11.4-25.2-26.6-32.2-43.7c-3.8-9.2-5.5-19.2-6-29.2
	c-0.7-13.9,1.3-27.3,6-40.4c1.2-3.4,1.2-3.9-2.5-3.9c-14.5,0-29,0-43.6,0c-7.5,0-7.5,0-7.5,7.3c0,46.7,0.1,93.3,0,140
	c0,11.4,2.7,21.5,11.4,29.2c5.5,4.9,11.9,8.7,19.5,8.7c76.9,0.2,153.9,0.2,230.8,0.3c2.7,0,5.3-0.4,8-1.2
	c16.1-4.7,26.3-19.6,25.3-35.7c0-26.8,0-53.6,0-80.4c0-8.2,0.2-16.3,0.3-24.5c0.1-13.5,0.1-27,0.1-40.6c0-2.1-0.9-3.1-3.2-3
	c-16.1,0.1-32.3,0.1-48.4,0c-2.4,0-3.1,0.9-2.2,3.2c1.2,3.2,2.5,6.4,3.2,9.8c3,13.1,3.6,26.4,2,39.8
	C445.4,377.7,439.5,390.9,431.7,403.4z M488.9,238.3C488.8,238.3,488.8,238.3,488.9,238.3c0-9.2-0.1-18.4,0-27.5
	c0.1-2.9-0.7-3.8-3.7-3.8c-18.2,0.1-36.5,0.1-54.7,0c-2.8,0-3.6,0.8-3.6,3.6c0.1,18.5,0.1,36.9,0.1,55.4c0,2.6,0.7,3.4,3.4,3.4
	c18.5-0.1,37-0.1,55.4,0c2.8,0,3.2-1.1,3.2-3.5C488.8,256.6,488.9,247.4,488.9,238.3z"/>
<circle class="st1" cx="347.6" cy="347.6" r="331.1"/>
</svg>
