<?xml version="1.0" encoding="utf-8"?>
<!-- Generator: Adobe Illustrator 24.3.0, SVG Export Plug-In . SVG Version: 6.00 Build 0)  -->
<svg version="1.1" id="Layer_1" xmlns="http://www.w3.org/2000/svg" xmlns:xlink="http://www.w3.org/1999/xlink" x="0px" y="0px"
	 viewBox="0 0 697.8 697.8" style="enable-background:new 0 0 697.8 697.8;" xml:space="preserve">
<style type="text/css">
	.st0{fill:#3F67A9;enable-background:new    ;}
	.st1{fill:none;stroke:#FFFFFF;stroke-width:14;stroke-miterlimit:10;}
</style>
<path class="st0" d="M389.9,440.9c0,32.6,0,65.2,0,97.8c0,4-0.1,4.1-4.1,4.1c-26.4,0-52.8,0-79.3,0c-4,0-4.1-0.1-4.1-4.1
	c0-65.1,0-130.2,0-195.3c0-4.1,0-4.1-4.2-4.1c-15.6,0-31.3,0-46.9,0c-4.2,0-4.2-0.2-4.2-4.2c0-19.3,0-38.6-0.1-57.9
	c0-0.9,0-1.9,0-2.8c-0.1-1.9,0.8-2.7,2.7-2.6c2.6,0.1,5.2,0,7.9,0c13.8,0,27.5-0.1,41.3,0.1c2.6,0,3.5-0.6,3.5-3.4
	c-0.2-12-0.4-24,0-36c1.1-33.2,16.7-57.2,46.6-71.6c9.5-4.6,19.7-6.6,30.2-6.6c22.4,0,44.8,0,67.2,0c4.4,0,4.5,0.1,4.5,4.3
	c0,19.1,0,38.2,0,57.3c0,5.7,0,5.7-5.6,5.7c-8.8,0-17.6-0.2-26.4,0c-12.2,0.3-21.4,5.6-26.6,16.9c-1.5,3.2-2.2,7-2.4,10.6
	c-0.4,6.4,0,12.9-0.2,19.4c-0.1,2.8,0.9,3.4,3.5,3.4c17.9-0.1,35.8-0.1,53.7-0.1c3.8,0,3.9,0.1,3.9,4c0,19.7,0,39.3,0,59
	c0,4.5-0.1,4.5-4.6,4.5c-17.4,0-34.8,0-52.3,0c-4.2,0-4.2,0-4.2,4.1C389.9,375.9,389.9,408.4,389.9,440.9z"/>
<circle class="st1" cx="348.9" cy="348.6" r="331.1"/>
</svg>
