<?xml version="1.0" standalone="no"?>
<!DOCTYPE svg PUBLIC "-//W3C//DTD SVG 20010904//EN"
 "http://www.w3.org/TR/2001/REC-SVG-20010904/DTD/svg10.dtd">
<svg version="1.0" xmlns="http://www.w3.org/2000/svg"
 width="512.000000pt" height="512.000000pt" viewBox="0 0 512.000000 512.000000"
 preserveAspectRatio="xMidYMid meet">

<g transform="translate(0.000000,512.000000) scale(0.100000,-0.100000)"
fill="#000000" stroke="none">
<path d="M3285 4794 c-95 -15 -200 -40 -275 -66 -446 -157 -765 -535 -846
-1002 -23 -131 -15 -377 16 -505 l22 -94 -675 -676 c-479 -479 -682 -689 -697
-721 -19 -37 -26 -86 -46 -305 -30 -341 -31 -396 0 -460 30 -63 86 -118 151
-146 45 -20 59 -21 178 -15 185 10 453 34 514 47 66 13 111 44 141 94 22 39
23 45 16 197 l-6 158 133 -3 c148 -2 174 5 222 63 34 40 41 81 34 209 l-6 106
346 347 346 346 56 -25 c293 -133 618 -153 908 -56 98 32 216 91 313 156 94
63 279 248 347 348 102 149 180 331 219 514 24 114 24 352 0 465 -54 251 -171
464 -355 649 -181 183 -397 300 -654 356 -70 16 -341 28 -402 19z m409 -693
l131 -129 28 24 c37 31 81 31 112 -1 31 -30 32 -61 1 -105 l-24 -35 24 -32
c67 -88 82 -194 44 -297 -35 -94 -132 -183 -217 -201 -30 -6 -32 -9 -25 -33 4
-15 7 -58 7 -97 -2 -251 -303 -438 -524 -325 -22 11 -69 46 -103 79 -62 57
-63 58 -83 39 -42 -41 -106 -35 -130 13 -18 34 -13 63 18 97 l21 22 -167 168
c-147 148 -167 172 -167 201 0 42 38 81 80 81 24 0 44 -12 89 -55 l57 -54 309
309 c296 296 308 310 292 328 -27 29 -22 87 9 111 54 43 74 33 218 -108z"/>
<path d="M3487 3852 l-107 -108 123 -122 c130 -128 177 -158 232 -148 38 7 92
46 117 83 20 31 24 103 7 136 -11 22 -249 267 -259 267 -3 0 -54 -49 -113
-108z"/>
<path d="M3122 3487 l-142 -143 167 -166 c180 -178 210 -197 288 -182 86 16
170 105 182 193 10 75 -9 105 -180 279 -89 89 -163 162 -166 162 -4 0 -70 -64
-149 -143z"/>
<path d="M795 4647 c-126 -62 -178 -200 -121 -323 60 -129 210 -181 337 -116
225 114 154 443 -99 459 -56 3 -75 0 -117 -20z"/>
<path d="M820 3995 c0 -40 37 -143 69 -192 16 -27 219 -237 451 -468 l420
-420 57 58 58 57 -427 428 c-234 235 -433 441 -441 457 -8 17 -18 47 -22 67
l-7 36 -79 0 c-76 0 -79 0 -79 -23z"/>
<path d="M572 3251 c-211 -73 -219 -372 -13 -458 20 -9 63 -15 96 -15 171 -1
283 157 233 326 -18 60 -92 131 -159 150 -67 20 -91 20 -157 -3z"/>
<path d="M942 2732 l-53 -55 158 -159 158 -158 55 55 55 55 -160 159 -160 159
-53 -56z"/>
<path d="M2869 2154 c-11 -13 56 -84 503 -530 l515 -516 58 57 58 57 -443 443
-442 442 -57 13 c-31 7 -78 21 -106 31 -61 23 -69 23 -86 3z"/>
<path d="M2457 1742 c-31 -32 -57 -60 -57 -64 0 -3 10 -8 23 -11 12 -4 140
-124 284 -269 251 -253 262 -265 278 -321 11 -39 15 -73 10 -105 -6 -48 -6
-48 39 -80 25 -18 51 -42 56 -53 17 -30 27 -23 46 34 39 112 16 268 -54 369
-33 47 -544 558 -558 558 -6 0 -35 -26 -67 -58z"/>
<path d="M4119 1092 c-67 -35 -114 -94 -128 -163 -43 -198 161 -361 345 -275
114 53 168 174 133 299 -15 54 -102 142 -154 156 -71 19 -137 14 -196 -17z"/>
<path d="M2717 806 c-169 -46 -234 -263 -118 -397 91 -107 243 -118 348 -25
60 52 83 104 83 185 0 113 -67 205 -174 236 -59 18 -76 18 -139 1z"/>
</g>
</svg>
