<?xml version="1.0" standalone="no"?>
<!DOCTYPE svg PUBLIC "-//W3C//DTD SVG 20010904//EN"
 "http://www.w3.org/TR/2001/REC-SVG-20010904/DTD/svg10.dtd">
<svg version="1.0" xmlns="http://www.w3.org/2000/svg"
 width="512.000000pt" height="512.000000pt" viewBox="0 0 512.000000 512.000000"
 preserveAspectRatio="xMidYMid meet">
<metadata>
Created by potrace 1.16, written by Peter Selinger 2001-2019
</metadata>
<g transform="translate(0.000000,512.000000) scale(0.100000,-0.100000)"
fill="#000000" stroke="none">
<path d="M2425 5106 c-124 -41 -100 -18 -1233 -1149 -596 -595 -1098 -1105
-1117 -1133 -76 -113 -98 -285 -55 -415 65 -193 219 -307 440 -325 l79 -7 3
-816 c3 -800 4 -817 24 -871 75 -198 200 -320 383 -374 47 -14 122 -16 535
-16 462 0 482 1 514 20 18 11 41 34 52 52 19 32 20 52 20 668 0 433 4 648 11
675 17 60 64 121 117 152 l47 28 316 0 316 0 49 -30 c55 -34 107 -111 118
-172 3 -21 6 -318 6 -661 0 -675 -2 -649 55 -702 l27 -25 481 -3 c322 -2 499
1 534 8 138 29 298 151 361 275 70 140 66 83 70 981 l3 812 82 7 c201 17 333
105 416 275 35 74 36 77 36 200 0 124 0 126 -38 205 -38 80 -39 81 -1135 1177
-1097 1097 -1097 1097 -1177 1135 -76 36 -86 38 -190 40 -71 2 -124 -2 -150
-11z"/>
</g>
</svg>
