<svg xmlns="http://www.w3.org/2000/svg" width="34" height="34" viewBox="0 0 34 34">
  <g id="Group_417" data-name="Group 417" transform="translate(587 -152)">
    <rect id="Rectangle_114" data-name="Rectangle 114" width="34" height="34" rx="8" transform="translate(-587 152)" fill="#171e30"/>
    <g id="eye-hide-line" transform="translate(-580.671 159.634)">
      <path id="Path_390" data-name="Path 390" d="M22.248,17.3a4.513,4.513,0,0,0,.286-1.6,4.567,4.567,0,0,0-4.567-4.567,4.52,4.52,0,0,0-1.578.286l1.072,1.105a3.182,3.182,0,0,1,.493-.04A3.242,3.242,0,0,1,21.2,15.707a3.189,3.189,0,0,1-.04.493Z" transform="translate(-7.064 -6.58)" fill="#fff"/>
      <path id="Path_391" data-name="Path 391" d="M27.249,14.187A12.03,12.03,0,0,0,16.718,7.53,11.2,11.2,0,0,0,13.23,8.1L14.3,9.174a9.839,9.839,0,0,1,2.416-.313A10.629,10.629,0,0,1,25.9,14.473,11.816,11.816,0,0,1,23,17.868l.945.945a13.267,13.267,0,0,0,3.328-3.994l.173-.32Z" transform="translate(-6.007 -5.373)" fill="#fff"/>
      <path id="Path_392" data-name="Path 392" d="M4.038,5.282,7.007,8.251A12.994,12.994,0,0,0,2.553,13.1l-.173.313.173.32a12.03,12.03,0,0,0,10.531,6.657,11.268,11.268,0,0,0,4.9-1.124l3.33,3.327,1.165-1L5.176,4.29Zm6.49,6.49L14.955,16.2a3.2,3.2,0,0,1-1.664.479,3.242,3.242,0,0,1-3.242-3.262,3.2,3.2,0,0,1,.479-1.644Zm-.965-.965a4.56,4.56,0,0,0,6.357,6.357l1.065,1.065a9.925,9.925,0,0,1-3.9.8A10.629,10.629,0,0,1,3.9,13.417,11.51,11.51,0,0,1,7.972,9.223Z" transform="translate(-2.38 -4.29)" fill="#fff"/>
    </g>
  </g>
</svg>
