<svg xmlns="http://www.w3.org/2000/svg" width="34" height="34" viewBox="0 0 34 34">
  <g id="Group_418" data-name="Group 418" transform="translate(629 -152)">
    <rect id="Rectangle_115" data-name="Rectangle 115" width="34" height="34" rx="8" transform="translate(-629 152)" fill="#171e30"/>
    <g id="adjustments-alt" transform="translate(-619.838 161.337)">
      <path id="Path_398" data-name="Path 398" d="M6,12h4.044v4.044H6Z" transform="translate(-6 -7.956)" fill="none" stroke="#fff" stroke-linecap="round" stroke-linejoin="round" stroke-width="1"/>
      <path id="Path_399" data-name="Path 399" d="M9,6v4.044" transform="translate(-6.978 -6)" fill="none" stroke="#fff" stroke-linecap="round" stroke-linejoin="round" stroke-width="1"/>
      <path id="Path_400" data-name="Path 400" d="M9,18v8.089" transform="translate(-6.978 -9.911)" fill="none" stroke="#fff" stroke-linecap="round" stroke-linejoin="round" stroke-width="1"/>
      <path id="Path_401" data-name="Path 401" d="M15,21h4.044v4.044H15Z" transform="translate(-8.933 -10.889)" fill="none" stroke="#fff" stroke-linecap="round" stroke-linejoin="round" stroke-width="1"/>
      <path id="Path_402" data-name="Path 402" d="M18,6V16.111" transform="translate(-9.911 -6)" fill="none" stroke="#fff" stroke-linecap="round" stroke-linejoin="round" stroke-width="1"/>
      <path id="Path_403" data-name="Path 403" d="M18,27v2.022" transform="translate(-9.911 -12.845)" fill="none" stroke="#fff" stroke-linecap="round" stroke-linejoin="round" stroke-width="1"/>
      <path id="Path_404" data-name="Path 404" d="M24,7.5h4.044v4.044H24Z" transform="translate(-11.867 -6.489)" fill="none" stroke="#fff" stroke-linecap="round" stroke-linejoin="round" stroke-width="1"/>
      <path id="Path_405" data-name="Path 405" d="M27,6V7.011" transform="translate(-12.845 -6)" fill="none" stroke="#fff" stroke-linecap="round" stroke-linejoin="round" stroke-width="1"/>
      <path id="Path_406" data-name="Path 406" d="M27,13.5V24.622" transform="translate(-12.845 -8.444)" fill="none" stroke="#fff" stroke-linecap="round" stroke-linejoin="round" stroke-width="1"/>
    </g>
  </g>
</svg>
