<svg xmlns="http://www.w3.org/2000/svg" width="101" height="113.64" viewBox="0 0 101 113.64">
  <g id="Group_404" data-name="Group 404" transform="translate(-163 -131)">
    <path id="Path_243" data-name="Path 243" d="M242.4,259.373a16.094,16.094,0,1,0-20.31-10.274A16.059,16.059,0,0,0,242.4,259.373Z" transform="translate(-23 -97)" fill="#fff"/>
    <path id="Path_244" data-name="Path 244" d="M230.329,310.267a16.094,16.094,0,1,0,20.309,10.274A16.058,16.058,0,0,0,230.329,310.267Z" transform="translate(-23 -97)" fill="#fff"/>
    <path id="Path_245" data-name="Path 245" d="M250.4,276.816c-.239,0-.478.119-.717.119a.439.439,0,0,0-.359.12c-.119,0-.239.119-.358.119s-.239.12-.358.12-.239.119-.478.119c-.12,0-.239.12-.359.12-.239.119-.358.119-.478.239a.117.117,0,0,0-.119.119,15.88,15.88,0,0,0-8.363,7.885,21.514,21.514,0,0,1-12.544,10.991,19.631,19.631,0,0,1-9.438.836,21.815,21.815,0,0,1-7.167-2.27,15.809,15.809,0,0,0-13.142-.836A16.122,16.122,0,0,0,186.6,313.97a15.838,15.838,0,0,0,7.885,9.8,16.381,16.381,0,0,0,12.544,1.075,15.99,15.99,0,0,0,9.558-8.482,21.546,21.546,0,0,1,12.424-10.871,21.011,21.011,0,0,1,16.367,1.314,16.186,16.186,0,0,0,12.663,1.2,16.476,16.476,0,0,0,9.558-8.363,15.354,15.354,0,0,0,.6-12.544A15.881,15.881,0,0,0,250.4,276.816Z" transform="translate(-23 -97)" fill="#fff"/>
    <path id="Path_246" data-name="Path 246" d="M286,254.476a16.164,16.164,0,0,0-19.473-9.8,16.338,16.338,0,0,0-10.155,8.483,21.512,21.512,0,0,1-12.544,10.99,21.186,21.186,0,0,1-16.6-1.433,15.805,15.805,0,0,0-13.142-.836,16.12,16.12,0,0,0-9.915,19.473,15.836,15.836,0,0,0,7.884,9.8,15.632,15.632,0,0,0,6.093,1.792,16.8,16.8,0,0,0,6.451-.717,16.189,16.189,0,0,0,5.854-3.464,17.123,17.123,0,0,0,3.7-5.018,20.581,20.581,0,0,1,10.991-10.274c.119,0,.119-.12.238-.12a1.705,1.705,0,0,1,.717-.239c.12,0,.239-.119.359-.119h.119c.12,0,.239-.12.359-.12s.238-.119.358-.119h.119c.12,0,.359-.119.478-.119s.359-.12.478-.12c.239,0,.478-.119.717-.119h.239a21.336,21.336,0,0,1,13.619,2.031,16.186,16.186,0,0,0,12.663,1.194,16.474,16.474,0,0,0,9.558-8.362A15.52,15.52,0,0,0,286,254.476Z" transform="translate(-23 -97)" fill="#fff"/>
  </g>
</svg>
