<svg xmlns="http://www.w3.org/2000/svg" width="193.913" height="77.999" viewBox="0 0 193.913 77.999">
  <g id="Group_403" data-name="Group 403" transform="translate(-118 -424)">
    <path id="Path_379" data-name="Path 379" d="M178.709,460.535a11.047,11.047,0,1,0-13.94-7.053A11.023,11.023,0,0,0,178.709,460.535Z" transform="translate(-22 -15)" fill="#fff"/>
    <path id="Path_380" data-name="Path 380" d="M170.427,495.465a11.047,11.047,0,1,0,13.94,7.052A11.022,11.022,0,0,0,170.427,495.465Z" transform="translate(-22 -15)" fill="#fff"/>
    <path id="Path_381" data-name="Path 381" d="M184.2,472.506c-.164,0-.328.082-.492.082a.3.3,0,0,0-.246.082c-.082,0-.164.082-.246.082s-.164.082-.246.082-.164.082-.328.082c-.082,0-.164.082-.246.082-.164.082-.246.082-.328.164a.08.08,0,0,0-.082.082,10.9,10.9,0,0,0-5.74,5.412,14.772,14.772,0,0,1-8.611,7.545,13.474,13.474,0,0,1-6.478.574,14.99,14.99,0,0,1-4.92-1.558,10.85,10.85,0,0,0-9.02-.574,11.065,11.065,0,0,0-6.806,13.366,10.871,10.871,0,0,0,5.412,6.724,11.247,11.247,0,0,0,8.61.738,10.976,10.976,0,0,0,6.56-5.822,14.789,14.789,0,0,1,8.528-7.462,14.424,14.424,0,0,1,11.235.9,11.109,11.109,0,0,0,8.692.82,11.308,11.308,0,0,0,6.56-5.74,10.541,10.541,0,0,0,.41-8.611A10.9,10.9,0,0,0,184.2,472.506Z" transform="translate(-22 -15)" fill="#fff"/>
    <path id="Path_382" data-name="Path 382" d="M208.641,457.173a11.1,11.1,0,0,0-13.367-6.724,11.212,11.212,0,0,0-6.97,5.822,14.769,14.769,0,0,1-8.61,7.544,14.544,14.544,0,0,1-11.4-.984,10.85,10.85,0,0,0-9.02-.574,11.065,11.065,0,0,0-6.806,13.366,10.871,10.871,0,0,0,5.412,6.724,10.722,10.722,0,0,0,4.182,1.23,11.525,11.525,0,0,0,4.428-.492,11.116,11.116,0,0,0,4.018-2.378,11.739,11.739,0,0,0,2.542-3.444,14.129,14.129,0,0,1,7.544-7.052c.082,0,.082-.082.164-.082a1.165,1.165,0,0,1,.492-.164c.082,0,.164-.082.246-.082h.082c.082,0,.164-.082.246-.082s.164-.082.246-.082h.082c.082,0,.246-.082.328-.082s.246-.082.328-.082c.164,0,.328-.082.492-.082h.164a14.651,14.651,0,0,1,9.348,1.394,11.109,11.109,0,0,0,8.692.82,11.31,11.31,0,0,0,6.561-5.74A10.652,10.652,0,0,0,208.641,457.173Z" transform="translate(-22 -15)" fill="#fff"/>
    <path id="Path_383" data-name="Path 383" d="M202.913,504.211l17.132-30.356h5.2l4.353,30.356h-6l-.935-7.571h-9.685l-4.062,7.571Zm11.88-11.713h7.746l-1.313-11.927Zm17.475,11.713,4.7-22.4h5.666l-4.7,22.4Zm5.367-25.528,1.19-5.683h5.667l-1.181,5.683Zm5.336,25.528,4.7-22.4h5.2l-1.013,4.783a13.9,13.9,0,0,1,3.6-3.652,7.038,7.038,0,0,1,3.974-1.345q.423,0,.635.018c.141.018.267.039.379.063l-1.058,5.1a11.379,11.379,0,0,0-4.547,1,7.587,7.587,0,0,0-3.358,2.886l-2.838,13.557Zm16.58,0,6.389-30.356h12.1a6.477,6.477,0,0,1,3.041.7,6.924,6.924,0,0,1,2.282,1.879,8.377,8.377,0,0,1,1.419,2.7,10.116,10.116,0,0,1,.485,3.1,10.944,10.944,0,0,1-.882,4.249,12.836,12.836,0,0,1-2.432,3.785,12.985,12.985,0,0,1-3.6,2.717,9.38,9.38,0,0,1-4.335,1.051h-6.557l-2.115,10.172Zm9.007-15.347h6.133a3.432,3.432,0,0,0,1.719-.472,5.262,5.262,0,0,0,1.48-1.3,6.587,6.587,0,0,0,1.031-1.95,7.339,7.339,0,0,0,.388-2.432,4.1,4.1,0,0,0-.811-2.717,2.441,2.441,0,0,0-1.938-.962h-5.923Zm24.5,15.774a7.572,7.572,0,0,1-3.322-.7,7.136,7.136,0,0,1-2.476-1.951,8.647,8.647,0,0,1-1.543-2.921,12.084,12.084,0,0,1-.528-3.617,14.5,14.5,0,0,1,.995-5.326,15.263,15.263,0,0,1,2.662-4.463,13.374,13.374,0,0,1,3.869-3.082,9.852,9.852,0,0,1,4.618-1.149,6.324,6.324,0,0,1,3.886,1.194,5.956,5.956,0,0,1,2.2,3.117l.846-3.848h5.667l-3.3,15.74a2.985,2.985,0,0,0-.132.766q0,.9,1.013.944l-1.013,4.872q-.759.125-1.331.214a6.65,6.65,0,0,1-1,.089,3.847,3.847,0,0,1-2.344-.642,2.231,2.231,0,0,1-.873-1.923,8.263,8.263,0,0,1,.256-1.631,10.767,10.767,0,0,1-3.781,3.234A9.764,9.764,0,0,1,293.055,504.638Zm2.538-4.872a4.905,4.905,0,0,0,1.543-.276,6.82,6.82,0,0,0,1.586-.793,9.708,9.708,0,0,0,1.436-1.2A6.954,6.954,0,0,0,301.3,496l1.1-5.344a5.316,5.316,0,0,0-1.481-3.117,3.89,3.89,0,0,0-2.838-1.238,5.349,5.349,0,0,0-2.626.7,7.561,7.561,0,0,0-2.221,1.88,9.647,9.647,0,0,0-1.515,2.654,8.221,8.221,0,0,0-.573,3.011,5.821,5.821,0,0,0,1.181,3.723A3.94,3.94,0,0,0,295.593,499.766ZM309.766,514l-.678-4.4q1.269-.134,2.176-.3a5.7,5.7,0,0,0,1.6-.534,5.533,5.533,0,0,0,1.3-.936,10.852,10.852,0,0,0,1.225-1.478l1.225-1.666-3.675-22.874h5.79l1.9,17.441,1.437-2.4q1.313-2.174,2.291-4.08t1.727-3.7a36.753,36.753,0,0,0,1.313-3.572q.557-1.773,1.014-3.7h5.5q-.591,2.049-1.225,3.848a38.351,38.351,0,0,1-1.6,3.8q-.978,2.013-2.388,4.471t-3.49,5.879l-3.384,5.513a34.641,34.641,0,0,1-2.855,4.035,15.563,15.563,0,0,1-2.794,2.673,9.454,9.454,0,0,1-2.988,1.478A13.62,13.62,0,0,1,309.766,514Z" transform="translate(-22 -15)" fill="#fff"/>
  </g>
</svg>
