<svg xmlns="http://www.w3.org/2000/svg" width="202.304" height="286.183" viewBox="0 0 202.304 286.183">
  <g id="Group_405" data-name="Group 405" transform="translate(-116.002 -82)">
    <g id="Group_53" data-name="Group 53" transform="translate(-22 -47)" opacity="0.15">
      <ellipse id="Ellipse_24" data-name="Ellipse 24" cx="99.262" cy="24.783" rx="99.262" ry="24.783" transform="translate(138.002 369.437) rotate(-22.645)" fill="#fff"/>
    </g>
    <path id="Path_252" data-name="Path 252" d="M254.581,176.279l.11,38.893,11.047,6.419-.111-38.892Z" transform="translate(-22 -47)" fill="#fff"/>
    <path id="Path_253" data-name="Path 253" d="M258.475,329.265a4.541,4.541,0,0,0-3.883-.11,10.613,10.613,0,0,0-1.367.657,10.171,10.171,0,0,0-1.367.929,16.5,16.5,0,0,0-5.96,11.812c0,2.3.82,3.935,2.133,4.7l-3.828-2.241c-1.312-.766-2.132-2.408-2.132-4.7-.055-4.154,2.515-9.131,5.96-11.811a7.707,7.707,0,0,1,1.367-.93,7.474,7.474,0,0,1,1.312-.656,4.321,4.321,0,0,1,3.882.165Z" transform="translate(-22 -47)" fill="#ffdd94"/>
    <path id="Path_254" data-name="Path 254" d="M253.243,329.792a8.3,8.3,0,0,1,1.327-.624c3.424-1.252,6.051.706,6.063,4.876a16.25,16.25,0,0,1-7.342,12.717c-4.085,2.358-7.377.442-7.39-4.211-.012-4.159,2.555-9.109,5.98-11.826A11.344,11.344,0,0,1,253.243,329.792Z" transform="translate(-22 -47)" fill="#fff"/>
    <path id="Path_255" data-name="Path 255" d="M251.882,330.723l-3.854-2.24L247.99,314.7l3.853,2.239Z" transform="translate(-22 -47)" fill="#3c4469"/>
    <path id="Path_256" data-name="Path 256" d="M246.965,310.915l-3.854-2.24,7.562,3.028,3.854,2.24Z" transform="translate(-22 -47)" fill="#3c4469"/>
    <path id="Path_257" data-name="Path 257" d="M244.22,304.181l-3.854-2.24,2.688-1.551,3.854,2.239Z" transform="translate(-22 -47)" fill="#3c4469"/>
    <path id="Path_258" data-name="Path 258" d="M244.281,313.871l-3.854-2.24-.062-9.69,3.854,2.24Z" transform="translate(-22 -47)" fill="#3c4469"/>
    <path id="Path_259" data-name="Path 259" d="M246.907,302.629l.058,8.286,7.562,3.028.043,15.224a8.386,8.386,0,0,0-1.327.625,11.4,11.4,0,0,0-1.361.931l-.039-13.785-7.562-3.067-.062-9.69Z" transform="translate(-22 -47)" fill="#3c4469"/>
    <path id="Path_260" data-name="Path 260" d="M224.738,369.564a4.52,4.52,0,0,0-3.883-.163,7.726,7.726,0,0,0-1.366.655,7.465,7.465,0,0,0-1.368.932c-3.39,2.677-6.014,7.654-6.014,11.808.054,2.3.875,3.938,2.187,4.7l-3.882-2.24c-1.313-.766-2.133-2.406-2.133-4.7a16.354,16.354,0,0,1,6.015-11.812,9.518,9.518,0,0,1,1.312-.929,10.035,10.035,0,0,1,1.367-.656,4.5,4.5,0,0,1,3.882.163Z" transform="translate(-22 -47)" fill="#ffdd94"/>
    <path id="Path_261" data-name="Path 261" d="M219.473,370.061a8.476,8.476,0,0,1,1.362-.638c3.431-1.244,6.017.727,6.029,4.851a16.129,16.129,0,0,1-7.342,12.717c-4.05,2.338-7.377.481-7.391-4.211-.011-4.135,2.6-9.111,6.016-11.812A11.174,11.174,0,0,1,219.473,370.061Z" transform="translate(-22 -47)" fill="#fff"/>
    <path id="Path_262" data-name="Path 262" d="M218.147,370.968l-3.853-2.239-.06-21.081,3.854,2.24Z" transform="translate(-22 -47)" fill="#3c4469"/>
    <path id="Path_263" data-name="Path 263" d="M218.088,349.888l-3.854-2.24,9.8-21.369,3.854,2.24Z" transform="translate(-22 -47)" fill="#3c4469"/>
    <path id="Path_264" data-name="Path 264" d="M227.811,313.654l-3.854-2.239,2.723-1.572,3.854,2.239Z" transform="translate(-22 -47)" fill="#3c4469"/>
    <path id="Path_265" data-name="Path 265" d="M227.887,328.52l-3.853-2.24-.077-14.865,3.854,2.24Z" transform="translate(-22 -47)" fill="#3c4469"/>
    <path id="Path_266" data-name="Path 266" d="M230.534,312.082l.079,15.868-9.835,21.39.057,20.083a8.476,8.476,0,0,0-1.362.638,11.094,11.094,0,0,0-1.326.907l-.06-21.08,9.8-21.369-.076-14.865Z" transform="translate(-22 -47)" fill="#3c4469"/>
    <path id="Path_267" data-name="Path 267" d="M202.483,354.965a4.534,4.534,0,0,0-3.883-.109,13.762,13.762,0,0,0-1.312.6,7.855,7.855,0,0,0-1.367.985c-3.444,2.678-6.069,7.655-6.014,11.755,0,2.352.82,3.938,2.132,4.7l-3.882-2.243c-1.312-.763-2.133-2.349-2.133-4.7,0-4.1,2.57-9.075,6.015-11.756a6.838,6.838,0,0,1,1.367-.929,7.592,7.592,0,0,1,1.313-.657,4.64,4.64,0,0,1,3.937.11Z" transform="translate(-22 -47)" fill="#ffdd94"/>
    <path id="Path_268" data-name="Path 268" d="M197.262,355.483a8.374,8.374,0,0,1,1.327-.624c3.425-1.254,6.052.7,6.063,4.835a16.245,16.245,0,0,1-7.342,12.717c-4.085,2.358-7.412.462-7.425-4.191-.012-4.124,2.583-9.086,6.016-11.8A11.414,11.414,0,0,1,197.262,355.483Z" transform="translate(-22 -47)" fill="#fff"/>
    <path id="Path_269" data-name="Path 269" d="M195.877,347.8l-3.854-2.239,7.345-11.635,3.854,2.239Z" transform="translate(-22 -47)" fill="#3c4469"/>
    <path id="Path_270" data-name="Path 270" d="M195.9,356.415l-3.853-2.24-.025-8.61,3.854,2.24Z" transform="translate(-22 -47)" fill="#3c4469"/>
    <path id="Path_271" data-name="Path 271" d="M203.164,327.884l-3.853-2.239L202,324.093l3.853,2.24Z" transform="translate(-22 -47)" fill="#3c4469"/>
    <path id="Path_272" data-name="Path 272" d="M203.222,336.17l-3.854-2.24-.057-8.285,3.853,2.239Z" transform="translate(-22 -47)" fill="#3c4469"/>
    <path id="Path_273" data-name="Path 273" d="M205.852,326.333l.062,9.689L198.569,347.7l.02,7.163a8.461,8.461,0,0,0-1.327.624,11.53,11.53,0,0,0-1.361.932l-.025-8.609,7.346-11.636-.058-8.285Z" transform="translate(-22 -47)" fill="#3c4469"/>
    <path id="Path_274" data-name="Path 274" d="M142,267.408l.226,79.944c0,4.014,1.442,6.854,3.742,8.209l6.519,3.8c-2.3-1.351-3.7-4.192-3.7-8.249l-.27-79.9c0-8.162,5.726-18.036,12.76-22.094l127.966-73.9c3.562-2.028,6.763-2.208,9.108-.856l-6.564-3.808c-2.3-1.352-5.546-1.172-9.063.856l-127.965,73.9C147.681,249.372,142,259.292,142,267.408Z" transform="translate(-22 -47)" fill="#565d7c"/>
    <path id="Path_275" data-name="Path 275" d="M161.281,249.114c-7.054,4.072-12.764,13.961-12.741,22.1l.227,79.92c.023,8.139,5.771,11.415,12.824,7.343L289.556,284.6c7.053-4.072,12.763-13.963,12.74-22.1l-.227-79.92c-.023-8.139-5.771-11.413-12.823-7.341Z" transform="translate(-22 -47)" fill="#373f51"/>
    <path id="Path_276" data-name="Path 276" d="M186.146,254.917l.067,23.766L167.5,289.49c-1.528.881-2.806.176-2.811-1.6l-.005-1.713,15.917-9.19-.017-6.1-1.165.672.014,4.787-5.748,3.318-.05-17.515Z" transform="translate(-22 -47)" fill="#fff"/>
    <path id="Path_277" data-name="Path 277" d="M172.486,262.8l.014,4.954-7.859,4.537-.005-1.735a6.188,6.188,0,0,1,2.793-4.837Z" transform="translate(-22 -47)" fill="#fff"/>
    <path id="Path_278" data-name="Path 278" d="M195.205,268.553l.005,1.713a6.161,6.161,0,0,1-2.793,4.836l-5.057,2.919-.014-4.931Z" transform="translate(-22 -47)" fill="#fff"/>
    <path id="Path_279" data-name="Path 279" d="M195.186,262.281l.014,4.954-7.858,4.536-.014-4.953Z" transform="translate(-22 -47)" fill="#fff"/>
    <path id="Path_280" data-name="Path 280" d="M195.169,255.989l.014,4.975-7.859,4.537-.014-4.975Z" transform="translate(-22 -47)" fill="#fff"/>
    <path id="Path_281" data-name="Path 281" d="M192.349,251.336c1.547-.893,2.806-.175,2.811,1.6l0,1.735-7.858,4.537-.015-4.955Z" transform="translate(-22 -47)" fill="#fff"/>
    <path id="Path_282" data-name="Path 282" d="M172.522,275.367l.014,4.954-7.859,4.536-.014-4.953Z" transform="translate(-22 -47)" fill="#fff"/>
    <path id="Path_283" data-name="Path 283" d="M172.5,269.075l.014,4.975-7.859,4.537-.014-4.975Z" transform="translate(-22 -47)" fill="#fff"/>
    <path id="Path_284" data-name="Path 284" d="M189.8,309.03l.027,9.551L168.6,330.839l-.028-9.552Z" transform="translate(-22 -47)" fill="#626c82"/>
    <path id="Path_285" data-name="Path 285" d="M222.812,289.971l.027,9.551L201.574,311.8l-.027-9.551Z" transform="translate(-22 -47)" fill="#626c82"/>
    <path id="Path_286" data-name="Path 286" d="M255.824,270.91l.027,9.552-21.263,12.277-.028-9.552Z" transform="translate(-22 -47)" fill="#626c82"/>
    <path id="Path_287" data-name="Path 287" d="M288.838,251.851l.027,9.551L267.6,273.679l-.027-9.552Z" transform="translate(-22 -47)" fill="#626c82"/>
    <path id="Path_288" data-name="Path 288" d="M185.231,233.168l-3.854-2.239-.058-8.246,3.854,2.239Z" transform="translate(-22 -47)" fill="#3c4469"/>
    <path id="Path_289" data-name="Path 289" d="M180.331,218.836l-3.854-2.239,7.562,3.068,3.853,2.239Z" transform="translate(-22 -47)" fill="#3c4469"/>
    <path id="Path_290" data-name="Path 290" d="M175.077,203.744a11.277,11.277,0,0,0,1.361-.934l3.854,2.239a11.174,11.174,0,0,1-1.362.934Z" transform="translate(-22 -47)" fill="#3c4469"/>
    <path id="Path_291" data-name="Path 291" d="M177.611,221.854l-3.853-2.24-.044-15.23,3.854,2.239Z" transform="translate(-22 -47)" fill="#565d7c"/>
    <path id="Path_292" data-name="Path 292" d="M180.291,205.05l.039,13.787,7.562,3.068.062,9.691-2.723,1.573-.058-8.247-7.562-3.067-.043-15.231a8.493,8.493,0,0,0,1.362-.64A11.277,11.277,0,0,0,180.291,205.05Z" transform="translate(-22 -47)" fill="#565d7c"/>
    <path id="Path_293" data-name="Path 293" d="M173.714,204.384a8.511,8.511,0,0,0,1.362-.641l3.854,2.24a8.495,8.495,0,0,1-1.362.64C176.412,205.951,174.871,205.055,173.714,204.384Z" transform="translate(-22 -47)" fill="#3c4469"/>
    <path id="Path_294" data-name="Path 294" d="M201.639,223.7l-3.854-2.239-.079-15.829,3.853,2.239Z" transform="translate(-22 -47)" fill="#565d7c"/>
    <path id="Path_295" data-name="Path 295" d="M201.559,207.866l-3.853-2.24,9.8-21.408,3.854,2.24Z" transform="translate(-22 -47)" fill="#565d7c"/>
    <path id="Path_296" data-name="Path 296" d="M208.811,163.494a11.141,11.141,0,0,0,1.361-.932l3.854,2.24a11.531,11.531,0,0,1-1.361.932Z" transform="translate(-22 -47)" fill="#565d7c"/>
    <path id="Path_297" data-name="Path 297" d="M207.449,164.132a8.485,8.485,0,0,0,1.362-.638l3.853,2.24a8.444,8.444,0,0,1-1.362.638Z" transform="translate(-22 -47)" fill="#565d7c"/>
    <path id="Path_298" data-name="Path 298" d="M211.3,166.372a8.444,8.444,0,0,0,1.362-.638,11.46,11.46,0,0,0,1.362-.932l.059,21.084-9.835,21.431.077,14.826-2.689,1.552-.079-15.829,9.8-21.408Z" transform="translate(-22 -47)" fill="#565d7c"/>
    <path id="Path_299" data-name="Path 299" d="M207.449,164.133l.056,20.085,3.855,2.24-.058-20.086Z" transform="translate(-22 -47)" fill="#565d7c"/>
    <path id="Path_300" data-name="Path 300" d="M226.285,209.465l-3.853-2.239-.062-9.692,3.853,2.239Z" transform="translate(-22 -47)" fill="#565d7c"/>
    <path id="Path_301" data-name="Path 301" d="M226.223,199.774l-3.853-2.24,7.345-11.633,3.854,2.24Z" transform="translate(-22 -47)" fill="#565d7c"/>
    <path id="Path_302" data-name="Path 302" d="M231.057,178.054a11.165,11.165,0,0,0,1.361-.934l3.853,2.24a11.19,11.19,0,0,1-1.36.934Z" transform="translate(-22 -47)" fill="#3c4469"/>
    <path id="Path_303" data-name="Path 303" d="M233.569,188.141l-3.854-2.239-.02-7.209,3.854,2.24Z" transform="translate(-22 -47)" fill="#565d7c"/>
    <path id="Path_304" data-name="Path 304" d="M236.271,179.36l.025,8.612L228.951,199.6l.057,8.288-2.722,1.572-.062-9.692,7.345-11.633-.021-7.207a8.493,8.493,0,0,0,1.362-.639A11.088,11.088,0,0,0,236.271,179.36Z" transform="translate(-22 -47)" fill="#565d7c"/>
    <path id="Path_305" data-name="Path 305" d="M229.7,178.693a8.484,8.484,0,0,0,1.362-.638l3.853,2.239a8.525,8.525,0,0,1-1.361.639Z" transform="translate(-22 -47)" fill="#3c4469"/>
    <path id="Path_306" data-name="Path 306" d="M214.029,146.065l3.827,2.243c-1.312-.82-3.171-.71-5.249.491a16.267,16.267,0,0,0-7.327,12.741c0,2.3.82,3.938,2.133,4.7L203.585,164c-1.312-.766-2.132-2.405-2.187-4.7,0-4.7,3.336-10.388,7.381-12.738C210.8,145.355,212.662,145.245,214.029,146.065Z" transform="translate(-22 -47)" fill="#fff"/>
    <path id="Path_307" data-name="Path 307" d="M240.111,162.853c-1.367-.767-3.226-.657-5.249.491-4.046,2.352-7.382,8.092-7.327,12.741,0,2.3.82,3.935,2.133,4.7l-3.828-2.24c-1.367-.766-2.187-2.352-2.187-4.7a16.258,16.258,0,0,1,7.381-12.74c2.023-1.149,3.883-1.258,5.2-.492Z" transform="translate(-22 -47)" fill="#fff"/>
    <path id="Path_308" data-name="Path 308" d="M180.292,186.311l3.827,2.24c-1.312-.766-3.171-.654-5.249.494a16.259,16.259,0,0,0-7.327,12.741c0,2.3.821,3.935,2.133,4.7l-3.827-2.242c-1.313-.766-2.133-2.406-2.188-4.7a16.172,16.172,0,0,1,7.382-12.741C177.066,185.655,178.925,185.545,180.292,186.311Z" transform="translate(-22 -47)" fill="#fff"/>
    <path id="Path_309" data-name="Path 309" d="M178.882,189.056c4.05-2.338,7.377-.481,7.39,4.211.012,4.119-2.577,9.077-5.98,11.783a11.4,11.4,0,0,1-1.362.934,8.5,8.5,0,0,1-1.362.64c-3.43,1.243-6.016-.727-6.028-4.851A16.126,16.126,0,0,1,178.882,189.056Z" transform="translate(-22 -47)" fill="#fff"/>
    <path id="Path_310" data-name="Path 310" d="M212.617,148.806c4.084-2.358,7.377-.483,7.39,4.212.012,4.121-2.555,9.069-5.981,11.784a11.411,11.411,0,0,1-1.361.932,8.4,8.4,0,0,1-1.362.638c-3.408,1.227-6.017-.731-6.029-4.849A16.188,16.188,0,0,1,212.617,148.806Z" transform="translate(-22 -47)" fill="#fff"/>
    <path id="Path_311" data-name="Path 311" d="M234.862,163.364c4.05-2.338,7.378-.442,7.391,4.211.011,4.155-2.579,9.086-5.982,11.785a11.124,11.124,0,0,1-1.361.934,8.517,8.517,0,0,1-1.361.638c-3.408,1.233-6.017-.7-6.029-4.851A16.25,16.25,0,0,1,234.862,163.364Z" transform="translate(-22 -47)" fill="#fff"/>
    <path id="Path_312" data-name="Path 312" d="M265.627,182.7l.111,38.892A129.98,129.98,0,0,0,289.8,210.963a87.9,87.9,0,0,0,18.427-13.906l-.11-38.892a87.971,87.971,0,0,1-18.428,13.906A129.988,129.988,0,0,1,265.627,182.7Z" transform="translate(-22 -47)" fill="#fff"/>
    <path id="Path_313" data-name="Path 313" d="M254.581,176.279l11.046,6.423a129.905,129.905,0,0,0,24.058-10.625,88.429,88.429,0,0,0,18.442-13.91l-11.047-6.423a130.645,130.645,0,0,0-24.075,10.625A88.272,88.272,0,0,0,254.581,176.279Z" transform="translate(-22 -47)" fill="#fff"/>
    <path id="Path_314" data-name="Path 314" d="M261.413,161.593v13.525a2.628,2.628,0,0,0,1.53,2.139,8.27,8.27,0,0,0,7.486,0,2.644,2.644,0,0,0,1.552-2.181l-.084-13.525c-.021-7.36,5.6-17.068,12.036-20.759,2.139-1.259,4.131-1.657,5.18-1.049,1.048.587,1.677,2.475,1.7,4.886v13.462a2.6,2.6,0,0,0,1.509,2.139,8.141,8.141,0,0,0,7.424,0,2.641,2.641,0,0,0,1.551-2.161v-13.44c-.021-6.375-2.558-11.449-6.961-13.966-4.425-2.537-10.128-2.159-15.643,1.049C268.982,137.29,261.392,150.416,261.413,161.593Z" transform="translate(-22 -47)" fill="#565d7c"/>
  </g>
</svg>
