<svg xmlns="http://www.w3.org/2000/svg" width="61" height="48" viewBox="0 0 61 48">
  <g id="Group_410" data-name="Group 410" transform="translate(-51 -357)">
    <path id="Path_136" data-name="Path 136" d="M124.06,422.985l-.039-.038c-.22-.206-1.058-.9-4.078-3.356v-8.838a.938.938,0,0,0-.938-.937H107.456l-2.825-2.572a.937.937,0,0,0-1.261,0l-2.832,2.572H88.995a.938.938,0,0,0-.937.937v8.8c-.807.661-3.617,2.965-4.076,3.394-.014.013-.028.026-.041.04a4.933,4.933,0,0,0-1.413,3.467v23.579a4.92,4.92,0,0,0,1.537,3.59l0,.005A4.957,4.957,0,0,0,87.505,455H120.5a4.956,4.956,0,0,0,3.436-1.374l0-.005a4.92,4.92,0,0,0,1.537-3.59V426.452A4.934,4.934,0,0,0,124.06,422.985Zm-4.117-.978c.722.588,1.526,1.245,2.088,1.709l-2.088,2.222Zm3.35,3.105a3.081,3.081,0,0,1,.305,1.34v23.579a3.077,3.077,0,0,1-.385,1.5l-12.639-12.884ZM104,409.2l.672.611h-1.345Zm-14.067,2.486h28.136v16.242L109.26,437.3l-1.717-1.75a.939.939,0,0,0-.669-.281h-5.748a.939.939,0,0,0-.669.281L98.74,437.3l-8.808-9.371Zm-1.875,10.285v3.962l-2.093-2.227C86.458,423.3,87.184,422.7,88.057,421.976ZM84.4,450.031V426.452a3.074,3.074,0,0,1,.305-1.34l12.719,13.532L84.788,451.528A3.072,3.072,0,0,1,84.4,450.031Zm36.092,3.094H87.505a3.1,3.1,0,0,1-1.355-.309l15.369-15.668h4.961l15.369,15.668A3.107,3.107,0,0,1,120.5,453.125Z" transform="translate(-23 -50)" fill="#fff"/>
    <path id="Path_139" data-name="Path 139" d="M80,441l1.358,4.642L86,447l-4.642,1.358L80,453l-1.358-4.642L74,447l4.642-1.358Z" transform="translate(-23 -50)" fill="#fcb732"/>
    <path id="Path_140" data-name="Path 140" d="M129,412l1.358,4.642L135,418l-4.642,1.358L129,424l-1.358-4.642L123,418l4.642-1.358Z" transform="translate(-23 -50)" fill="#fcb732"/>
  </g>
</svg>
