<?xml version="1.0" standalone="no"?>
<!DOCTYPE svg PUBLIC "-//W3C//DTD SVG 20010904//EN"
 "http://www.w3.org/TR/2001/REC-SVG-20010904/DTD/svg10.dtd">
<svg version="1.0" xmlns="http://www.w3.org/2000/svg"
 width="512.000000pt" height="512.000000pt" viewBox="0 0 512.000000 512.000000"
 preserveAspectRatio="xMidYMid meet">

<g transform="translate(0.000000,512.000000) scale(0.100000,-0.100000)"
fill="#000000" stroke="none">
<path d="M521 4944 c-169 -45 -301 -180 -346 -351 -23 -87 -22 -2700 0 -2788
45 -172 179 -305 352 -350 87 -23 2700 -22 2788 0 172 45 305 179 350 352 23
86 23 2700 0 2786 -45 173 -178 307 -350 352 -86 22 -2710 22 -2794 -1z"/>
<path d="M3998 2733 c-4 -1028 0 -961 -58 -1115 -29 -78 -106 -194 -175 -263
-69 -69 -185 -146 -263 -175 -154 -58 -87 -54 -1114 -58 l-948 -3 0 -267 c0
-208 3 -281 15 -327 45 -172 179 -305 352 -350 86 -23 2700 -23 2786 0 173 45
307 178 352 350 13 52 15 228 15 1395 0 1470 3 1390 -61 1511 -38 70 -126 157
-197 193 -99 50 -144 56 -434 56 l-267 0 -3 -947z"/>
</g>
</svg>
