<?xml version="1.0" encoding="utf-8"?>
<!-- Generator: Adobe Illustrator 25.0.0, SVG Export Plug-In . SVG Version: 6.00 Build 0)  -->
<svg version="1.1" xmlns="http://www.w3.org/2000/svg" xmlns:xlink="http://www.w3.org/1999/xlink" x="0px" y="0px"
	 viewBox="0 0 100 100" style="enable-background:new 0 0 100 100;" xml:space="preserve">
<style type="text/css">
	.st0{fill:url(#SVGID_1_);}
	.st1{fill:url(#SVGID_2_);}
	.st2{fill:url(#SVGID_3_);}
	.st3{fill:url(#SVGID_4_);}
	.st4{fill:url(#SVGID_5_);}
	.st5{fill:url(#SVGID_6_);}
	.st6{fill:url(#SVGID_7_);}
	.st7{fill:url(#SVGID_8_);}
	.st8{fill:url(#SVGID_9_);}
	.st9{fill:#F0C97C;}
	.st10{fill:url(#SVGID_10_);}
	.st11{fill:url(#SVGID_11_);}
	.st12{fill:#FFFFFF;}
	.st13{fill:url(#SVGID_12_);}
	.st14{fill:url(#SVGID_13_);}
	.st15{fill:url(#SVGID_14_);}
	.st16{fill:url(#SVGID_15_);}
	.st17{fill:url(#SVGID_16_);}
	.st18{fill:url(#SVGID_17_);}
	.st19{fill:url(#SVGID_18_);}
	.st20{fill:url(#SVGID_19_);}
	.st21{fill:url(#SVGID_20_);}
	.st22{fill:url(#SVGID_21_);}
</style>
<g id="BACKGROUND">
</g>
<g id="OBJECTS">
	<g>
		<linearGradient id="SVGID_1_" gradientUnits="userSpaceOnUse" x1="51.9713" y1="-0.1013" x2="166.9936" y2="76.6323">
			<stop  offset="0" style="stop-color:#001FA9"/>
			<stop  offset="0.5264" style="stop-color:#0067C2"/>
			<stop  offset="0.636" style="stop-color:#207ECC"/>
			<stop  offset="0.7968" style="stop-color:#499CD9"/>
			<stop  offset="0.9237" style="stop-color:#63AEE1"/>
			<stop  offset="1" style="stop-color:#6CB5E4"/>
		</linearGradient>
		<path class="st0" d="M60.94,5.27c0,0.51-0.41,0.93-0.93,0.93c-0.51,0-0.93-0.41-0.93-0.93c0-0.51,0.41-0.93,0.93-0.93
			C60.53,4.34,60.94,4.76,60.94,5.27z"/>
		<linearGradient id="SVGID_2_" gradientUnits="userSpaceOnUse" x1="92.1206" y1="62.5388" x2="94.0516" y2="62.5388">
			<stop  offset="0" style="stop-color:#001FA9"/>
			<stop  offset="0.5264" style="stop-color:#0067C2"/>
			<stop  offset="0.636" style="stop-color:#207ECC"/>
			<stop  offset="0.7968" style="stop-color:#499CD9"/>
			<stop  offset="0.9237" style="stop-color:#63AEE1"/>
			<stop  offset="1" style="stop-color:#6CB5E4"/>
		</linearGradient>
		<path class="st1" d="M94.05,62.54c0,0.53-0.43,0.97-0.97,0.97c-0.53,0-0.97-0.43-0.97-0.97c0-0.53,0.43-0.97,0.97-0.97
			C93.62,61.57,94.05,62.01,94.05,62.54z"/>
		<linearGradient id="SVGID_3_" gradientUnits="userSpaceOnUse" x1="5.3597" y1="50.3892" x2="332.9268" y2="268.9153">
			<stop  offset="0" style="stop-color:#001FA9"/>
			<stop  offset="0.5264" style="stop-color:#0067C2"/>
			<stop  offset="0.636" style="stop-color:#207ECC"/>
			<stop  offset="0.7968" style="stop-color:#499CD9"/>
			<stop  offset="0.9237" style="stop-color:#63AEE1"/>
			<stop  offset="1" style="stop-color:#6CB5E4"/>
		</linearGradient>
		<path class="st2" d="M72.26,93.75c0,1.06-0.86,1.91-1.91,1.91c-1.06,0-1.91-0.86-1.91-1.91c0-1.06,0.86-1.91,1.91-1.91
			C71.41,91.84,72.26,92.69,72.26,93.75z"/>
		<linearGradient id="SVGID_4_" gradientUnits="userSpaceOnUse" x1="58.3566" y1="54.6239" x2="238.7003" y2="174.9346">
			<stop  offset="0" style="stop-color:#001FA9"/>
			<stop  offset="0.5264" style="stop-color:#0067C2"/>
			<stop  offset="0.636" style="stop-color:#207ECC"/>
			<stop  offset="0.7968" style="stop-color:#499CD9"/>
			<stop  offset="0.9237" style="stop-color:#63AEE1"/>
			<stop  offset="1" style="stop-color:#6CB5E4"/>
		</linearGradient>
		<path class="st3" d="M95.19,78.49c0,0.58-0.47,1.05-1.05,1.05c-0.58,0-1.05-0.47-1.05-1.05c0-0.58,0.47-1.05,1.05-1.05
			C94.72,77.44,95.19,77.91,95.19,78.49z"/>
		<linearGradient id="SVGID_5_" gradientUnits="userSpaceOnUse" x1="-80.7836" y1="19.1984" x2="68.3697" y2="118.7013">
			<stop  offset="0" style="stop-color:#001FA9"/>
			<stop  offset="0.5264" style="stop-color:#0067C2"/>
			<stop  offset="0.636" style="stop-color:#207ECC"/>
			<stop  offset="0.7968" style="stop-color:#499CD9"/>
			<stop  offset="0.9237" style="stop-color:#63AEE1"/>
			<stop  offset="1" style="stop-color:#6CB5E4"/>
		</linearGradient>
		<path class="st4" d="M24.26,87.97c0,1.08-0.88,1.96-1.96,1.96c-1.08,0-1.96-0.88-1.96-1.96c0-1.08,0.88-1.96,1.96-1.96
			C23.39,86.02,24.26,86.89,24.26,87.97z"/>
		<linearGradient id="SVGID_6_" gradientUnits="userSpaceOnUse" x1="-90.0598" y1="-46.044" x2="59.0935" y2="53.459">
			<stop  offset="0" style="stop-color:#001FA9"/>
			<stop  offset="0.5264" style="stop-color:#0067C2"/>
			<stop  offset="0.636" style="stop-color:#207ECC"/>
			<stop  offset="0.7968" style="stop-color:#499CD9"/>
			<stop  offset="0.9237" style="stop-color:#63AEE1"/>
			<stop  offset="1" style="stop-color:#6CB5E4"/>
		</linearGradient>
		<path class="st5" d="M14.99,22.73c0,1.08-0.88,1.96-1.96,1.96s-1.96-0.88-1.96-1.96c0-1.08,0.88-1.96,1.96-1.96
			S14.99,21.65,14.99,22.73z"/>
		<linearGradient id="SVGID_7_" gradientUnits="userSpaceOnUse" x1="81.8437" y1="12.0351" x2="84.6329" y2="12.0351">
			<stop  offset="0" style="stop-color:#001FA9"/>
			<stop  offset="0.5264" style="stop-color:#0067C2"/>
			<stop  offset="0.636" style="stop-color:#207ECC"/>
			<stop  offset="0.7968" style="stop-color:#499CD9"/>
			<stop  offset="0.9237" style="stop-color:#63AEE1"/>
			<stop  offset="1" style="stop-color:#6CB5E4"/>
		</linearGradient>
		<path class="st6" d="M84.22,11.62h-0.57v-0.57c0-0.23-0.18-0.41-0.41-0.41c-0.23,0-0.41,0.18-0.41,0.41v0.57h-0.57
			c-0.23,0-0.41,0.18-0.41,0.41c0,0.23,0.18,0.41,0.41,0.41h0.57v0.57c0,0.23,0.18,0.41,0.41,0.41c0.23,0,0.41-0.18,0.41-0.41v-0.57
			h0.57c0.23,0,0.41-0.18,0.41-0.41C84.63,11.81,84.45,11.62,84.22,11.62z"/>
		<linearGradient id="SVGID_8_" gradientUnits="userSpaceOnUse" x1="4.8085" y1="52.0202" x2="7.5978" y2="52.0202">
			<stop  offset="0" style="stop-color:#001FA9"/>
			<stop  offset="0.5264" style="stop-color:#0067C2"/>
			<stop  offset="0.636" style="stop-color:#207ECC"/>
			<stop  offset="0.7968" style="stop-color:#499CD9"/>
			<stop  offset="0.9237" style="stop-color:#63AEE1"/>
			<stop  offset="1" style="stop-color:#6CB5E4"/>
		</linearGradient>
		<path class="st7" d="M7.19,51.61H6.61v-0.57c0-0.23-0.18-0.41-0.41-0.41c-0.23,0-0.41,0.18-0.41,0.41v0.57H5.22
			c-0.23,0-0.41,0.18-0.41,0.41c0,0.23,0.18,0.41,0.41,0.41h0.57V53c0,0.23,0.18,0.41,0.41,0.41c0.23,0,0.41-0.18,0.41-0.41v-0.57
			h0.57c0.23,0,0.41-0.18,0.41-0.41C7.6,51.79,7.41,51.61,7.19,51.61z"/>
		<g>
			<linearGradient id="SVGID_9_" gradientUnits="userSpaceOnUse" x1="28.513" y1="50" x2="71.487" y2="50">
				<stop  offset="0" style="stop-color:#FFE16F"/>
				<stop  offset="1" style="stop-color:#FFBB3F"/>
			</linearGradient>
			<circle class="st8" cx="50" cy="50" r="21.49"/>
			<circle class="st9" cx="50" cy="50" r="21.49"/>
			<linearGradient id="SVGID_10_" gradientUnits="userSpaceOnUse" x1="33.3533" y1="30.3338" x2="60.0222" y2="61.8403">
				<stop  offset="5.434346e-07" style="stop-color:#FFE147"/>
				<stop  offset="1" style="stop-color:#FF783F"/>
			</linearGradient>
			<circle class="st10" cx="50" cy="50" r="20.73"/>
			<ellipse transform="matrix(0.7071 -0.7071 0.7071 0.7071 -20.7107 50)" class="st9" cx="50" cy="50" rx="17.52" ry="17.52"/>
			<linearGradient id="SVGID_11_" gradientUnits="userSpaceOnUse" x1="31.3804" y1="31.3805" x2="65.7071" y2="65.7071">
				<stop  offset="0" style="stop-color:#FF783F"/>
				<stop  offset="1" style="stop-color:#FFE147"/>
			</linearGradient>
			<circle class="st11" cx="50" cy="50" r="16.79"/>
			<path class="st12" d="M50.75,48.71c-2.45-1.02-3.16-1.64-3.16-2.77c0-0.91,0.66-1.97,2.52-1.97c1.72,0,2.8,0.62,3.27,0.88
				l0.39,0.22l0.96-2.54l-0.28-0.16c-0.98-0.58-2.09-0.9-3.38-0.99V38.7h-2.47v2.84c-2.53,0.53-4.14,2.36-4.14,4.74
				c0,2.84,2.29,4.13,4.77,5.1c2.03,0.82,2.86,1.67,2.86,2.91c0,1.36-1.18,2.3-2.88,2.3c-1.31,0-2.67-0.41-3.74-1.11l-0.41-0.27
				l-0.92,2.58l0.24,0.17c0.97,0.69,2.52,1.17,4.04,1.26v2.79h2.5v-2.92c2.61-0.56,4.33-2.53,4.33-4.98
				C55.24,51.6,53.89,50,50.75,48.71z"/>
		</g>
		<linearGradient id="SVGID_12_" gradientUnits="userSpaceOnUse" x1="-91.7721" y1="-4.1456" x2="347.0796" y2="288.6206">
			<stop  offset="0" style="stop-color:#001FA9"/>
			<stop  offset="0.5264" style="stop-color:#0067C2"/>
			<stop  offset="0.636" style="stop-color:#207ECC"/>
			<stop  offset="0.7968" style="stop-color:#499CD9"/>
			<stop  offset="0.9237" style="stop-color:#63AEE1"/>
			<stop  offset="1" style="stop-color:#6CB5E4"/>
		</linearGradient>
		<path class="st13" d="M35.05,78.49c0,1.62-1.32,2.94-2.94,2.94c-1.62,0-2.94-1.32-2.94-2.94c0-1.62,1.32-2.94,2.94-2.94
			C33.73,75.55,35.05,76.87,35.05,78.49z"/>
		<linearGradient id="SVGID_13_" gradientUnits="userSpaceOnUse" x1="77.0472" y1="62.65" x2="82.9312" y2="62.65">
			<stop  offset="0" style="stop-color:#001FA9"/>
			<stop  offset="0.5264" style="stop-color:#0067C2"/>
			<stop  offset="0.636" style="stop-color:#207ECC"/>
			<stop  offset="0.7968" style="stop-color:#499CD9"/>
			<stop  offset="0.9237" style="stop-color:#63AEE1"/>
			<stop  offset="1" style="stop-color:#6CB5E4"/>
		</linearGradient>
		<path class="st14" d="M82.93,62.65c0,1.62-1.32,2.94-2.94,2.94c-1.62,0-2.94-1.32-2.94-2.94c0-1.62,1.32-2.94,2.94-2.94
			C81.61,59.71,82.93,61.03,82.93,62.65z"/>
		<linearGradient id="SVGID_14_" gradientUnits="userSpaceOnUse" x1="-59.3498" y1="-63.7978" x2="178.4063" y2="94.8137">
			<stop  offset="0" style="stop-color:#001FA9"/>
			<stop  offset="0.5264" style="stop-color:#0067C2"/>
			<stop  offset="0.636" style="stop-color:#207ECC"/>
			<stop  offset="0.7968" style="stop-color:#499CD9"/>
			<stop  offset="0.9237" style="stop-color:#63AEE1"/>
			<stop  offset="1" style="stop-color:#6CB5E4"/>
		</linearGradient>
		<path class="st15" d="M72.27,22.73c0,1.06-0.86,1.91-1.91,1.91c-1.06,0-1.91-0.86-1.91-1.91c0-1.06,0.86-1.91,1.91-1.91
			C71.41,20.82,72.27,21.67,72.27,22.73z"/>
		<linearGradient id="SVGID_15_" gradientUnits="userSpaceOnUse" x1="49.5861" y1="17.0379" x2="53.3229" y2="17.0379">
			<stop  offset="0" style="stop-color:#001FA9"/>
			<stop  offset="0.5264" style="stop-color:#0067C2"/>
			<stop  offset="0.636" style="stop-color:#207ECC"/>
			<stop  offset="0.7968" style="stop-color:#499CD9"/>
			<stop  offset="0.9237" style="stop-color:#63AEE1"/>
			<stop  offset="1" style="stop-color:#6CB5E4"/>
		</linearGradient>
		<path class="st16" d="M52.77,16.49H52v-0.77c0-0.3-0.25-0.55-0.55-0.55c-0.3,0-0.55,0.25-0.55,0.55v0.77h-0.77
			c-0.3,0-0.55,0.25-0.55,0.55c0,0.3,0.25,0.55,0.55,0.55h0.77v0.77c0,0.3,0.25,0.55,0.55,0.55c0.3,0,0.55-0.25,0.55-0.55v-0.77
			h0.77c0.3,0,0.55-0.25,0.55-0.55C53.32,16.73,53.08,16.49,52.77,16.49z"/>
		<linearGradient id="SVGID_16_" gradientUnits="userSpaceOnUse" x1="-62.7197" y1="-23.4989" x2="380.6133" y2="272.2569">
			<stop  offset="0" style="stop-color:#001FA9"/>
			<stop  offset="0.5264" style="stop-color:#0067C2"/>
			<stop  offset="0.636" style="stop-color:#207ECC"/>
			<stop  offset="0.7968" style="stop-color:#499CD9"/>
			<stop  offset="0.9237" style="stop-color:#63AEE1"/>
			<stop  offset="1" style="stop-color:#6CB5E4"/>
		</linearGradient>
		<path class="st17" d="M27.31,34.32h-1.21v-1.21c0-0.48-0.39-0.87-0.86-0.87s-0.87,0.39-0.87,0.87v1.21h-1.21
			c-0.48,0-0.86,0.39-0.86,0.87c0,0.48,0.39,0.87,0.86,0.87h1.21v1.21c0,0.48,0.39,0.87,0.87,0.87s0.86-0.39,0.86-0.87v-1.21h1.21
			c0.48,0,0.87-0.39,0.87-0.87C28.18,34.7,27.79,34.32,27.31,34.32z"/>
		<linearGradient id="SVGID_17_" gradientUnits="userSpaceOnUse" x1="-9.5239" y1="22.7556" x2="433.8091" y2="318.5114">
			<stop  offset="0" style="stop-color:#001FA9"/>
			<stop  offset="0.5264" style="stop-color:#0067C2"/>
			<stop  offset="0.636" style="stop-color:#207ECC"/>
			<stop  offset="0.7968" style="stop-color:#499CD9"/>
			<stop  offset="0.9237" style="stop-color:#63AEE1"/>
			<stop  offset="1" style="stop-color:#6CB5E4"/>
		</linearGradient>
		<path class="st18" d="M80.51,80.57H79.3v-1.21c0-0.48-0.39-0.87-0.86-0.87c-0.48,0-0.87,0.39-0.87,0.87v1.21h-1.21
			c-0.48,0-0.86,0.39-0.86,0.87s0.39,0.87,0.86,0.87h1.21v1.21c0,0.48,0.39,0.87,0.87,0.87c0.48,0,0.86-0.39,0.86-0.87V82.3h1.21
			c0.48,0,0.87-0.39,0.87-0.87S80.99,80.57,80.51,80.57z"/>
		<linearGradient id="SVGID_18_" gradientUnits="userSpaceOnUse" x1="72.8693" y1="24.7249" x2="95.6901" y2="52.0706">
			<stop  offset="0" style="stop-color:#001FA9"/>
			<stop  offset="0.5264" style="stop-color:#0067C2"/>
			<stop  offset="0.636" style="stop-color:#207ECC"/>
			<stop  offset="0.7968" style="stop-color:#499CD9"/>
			<stop  offset="0.9237" style="stop-color:#63AEE1"/>
			<stop  offset="1" style="stop-color:#6CB5E4"/>
		</linearGradient>
		<path class="st19" d="M92,36.07l-8.2-13.02c-0.27-0.43-0.85-0.43-1.12,0l-8.2,13.02c-0.32,0.51,0.01,1.2,0.56,1.2h4.03v9.21
			c0,0.63,0.46,1.15,1.03,1.15h6.27c0.57,0,1.03-0.51,1.03-1.15v-9.21h4.03C91.99,37.28,92.31,36.58,92,36.07z"/>
		<linearGradient id="SVGID_19_" gradientUnits="userSpaceOnUse" x1="13.4678" y1="55.1657" x2="24.9146" y2="66.6125">
			<stop  offset="0" style="stop-color:#001FA9"/>
			<stop  offset="0.5264" style="stop-color:#0067C2"/>
			<stop  offset="0.636" style="stop-color:#207ECC"/>
			<stop  offset="0.7968" style="stop-color:#499CD9"/>
			<stop  offset="0.9237" style="stop-color:#63AEE1"/>
			<stop  offset="1" style="stop-color:#6CB5E4"/>
		</linearGradient>
		<path class="st20" d="M25.16,60.26l-5.63-8.04c-0.19-0.27-0.58-0.27-0.77,0l-5.63,8.04c-0.22,0.31,0,0.74,0.39,0.74h2.77v5.69
			c0,0.39,0.32,0.71,0.71,0.71h4.31c0.39,0,0.71-0.32,0.71-0.71V61h2.77C25.15,61,25.38,60.57,25.16,60.26z"/>
		<linearGradient id="SVGID_20_" gradientUnits="userSpaceOnUse" x1="25.6802" y1="10.2916" x2="37.1271" y2="21.7385">
			<stop  offset="0" style="stop-color:#001FA9"/>
			<stop  offset="0.5264" style="stop-color:#0067C2"/>
			<stop  offset="0.636" style="stop-color:#207ECC"/>
			<stop  offset="0.7968" style="stop-color:#499CD9"/>
			<stop  offset="0.9237" style="stop-color:#63AEE1"/>
			<stop  offset="1" style="stop-color:#6CB5E4"/>
		</linearGradient>
		<path class="st21" d="M37.37,15.38l-5.63-8.04c-0.19-0.27-0.58-0.27-0.77,0l-5.63,8.04c-0.22,0.31,0,0.74,0.39,0.74h2.77v5.69
			c0,0.39,0.32,0.71,0.71,0.71h4.31c0.39,0,0.71-0.32,0.71-0.71v-5.69h2.77C37.36,16.13,37.59,15.7,37.37,15.38z"/>
		<linearGradient id="SVGID_21_" gradientUnits="userSpaceOnUse" x1="45.786" y1="79.8292" x2="57.2329" y2="91.2761">
			<stop  offset="0" style="stop-color:#001FA9"/>
			<stop  offset="0.5264" style="stop-color:#0067C2"/>
			<stop  offset="0.636" style="stop-color:#207ECC"/>
			<stop  offset="0.7968" style="stop-color:#499CD9"/>
			<stop  offset="0.9237" style="stop-color:#63AEE1"/>
			<stop  offset="1" style="stop-color:#6CB5E4"/>
		</linearGradient>
		<path class="st22" d="M57.47,84.92l-5.63-8.04c-0.19-0.27-0.58-0.27-0.77,0l-5.63,8.04c-0.22,0.31,0,0.74,0.39,0.74h2.77v5.69
			c0,0.39,0.32,0.71,0.71,0.71h4.31c0.39,0,0.71-0.32,0.71-0.71v-5.69h2.77C57.47,85.66,57.69,85.23,57.47,84.92z"/>
	</g>
</g>
<g id="Layer_3">
</g>
</svg>
