<?xml version="1.0" standalone="no"?>
<!DOCTYPE svg PUBLIC "-//W3C//DTD SVG 20010904//EN"
 "http://www.w3.org/TR/2001/REC-SVG-20010904/DTD/svg10.dtd">
<svg version="1.0" xmlns="http://www.w3.org/2000/svg"
 width="512.000000pt" height="512.000000pt" viewBox="0 0 512.000000 512.000000"
 preserveAspectRatio="xMidYMid meet">

<g transform="translate(0.000000,512.000000) scale(0.100000,-0.100000)"
fill="#000000" stroke="none">
<path d="M790 4904 c-96 -16 -145 -31 -220 -66 -120 -58 -231 -168 -288 -288
-59 -125 -67 -169 -67 -375 0 -179 0 -180 28 -227 66 -113 219 -140 320 -57
62 51 71 83 77 275 5 165 6 172 33 212 15 23 46 54 69 69 40 27 47 28 212 33
192 6 224 15 275 77 83 101 56 254 -57 320 -45 27 -52 28 -202 30 -85 1 -166
-1 -180 -3z"/>
<path d="M4002 4901 c-58 -15 -108 -56 -136 -112 -44 -89 -31 -175 37 -243 56
-55 97 -66 257 -66 159 0 201 -11 255 -65 54 -54 65 -96 65 -256 0 -163 9
-199 64 -253 99 -100 262 -80 333 42 28 47 28 48 28 227 0 206 -8 250 -67 374
-75 157 -233 288 -408 337 -63 18 -375 29 -428 15z"/>
<path d="M1542 4030 c-220 -58 -396 -235 -452 -456 -18 -70 -20 -111 -20 -441
l0 -363 -135 0 c-114 0 -142 -3 -173 -19 -162 -83 -162 -299 0 -382 31 -16 59
-19 172 -19 l135 0 3 -387 c3 -368 5 -391 25 -453 64 -190 229 -353 418 -413
l70 -22 975 0 975 0 70 22 c190 60 353 222 418 413 20 62 22 85 25 453 l3 387
130 0 c142 0 181 10 233 58 107 100 79 274 -56 343 -31 16 -59 19 -172 19
l-135 0 -3 388 c-3 367 -5 390 -25 452 -64 188 -224 348 -413 413 l-65 22
-965 2 c-924 2 -968 1 -1038 -17z m2508 -1470 l0 -210 -1490 0 -1490 0 0 210
0 210 1490 0 1490 0 0 -210z"/>
<path d="M329 1252 c-39 -20 -62 -41 -84 -77 l-30 -48 0 -181 c0 -207 8 -250
67 -376 57 -119 169 -231 289 -288 124 -59 168 -67 374 -67 179 0 180 0 227
28 121 71 142 234 44 332 -55 54 -97 65 -256 65 -160 0 -201 11 -257 66 -54
54 -63 90 -63 253 0 160 -11 202 -65 256 -69 69 -159 83 -246 37z"/>
<path d="M4622 1269 c-46 -14 -118 -88 -131 -135 -6 -22 -11 -99 -11 -173 0
-148 -9 -194 -51 -244 -51 -62 -84 -71 -275 -77 -165 -5 -172 -6 -212 -33 -60
-39 -93 -94 -99 -164 -7 -80 31 -154 102 -198 l48 -30 181 0 c207 0 251 8 375
67 120 57 232 169 289 289 59 124 67 168 67 374 0 179 0 180 -28 227 -49 84
-160 126 -255 97z"/>
</g>
</svg>
