<svg id="security" xmlns="http://www.w3.org/2000/svg" xmlns:xlink="http://www.w3.org/1999/xlink" width="100" height="100" viewBox="0 0 100 100">
  <defs>
    <clipPath id="clip-path">
      <rect id="Rectangle_8" data-name="Rectangle 8" width="100" height="100" fill="none" stroke="#fff" stroke-width="3"/>
    </clipPath>
  </defs>
  <g id="Group_14" data-name="Group 14" clip-path="url(#clip-path)">
    <path id="Path_11" data-name="Path 11" d="M50,12.5A50,50,0,0,0,85.417,25,50,50,0,0,1,51.548,87.072Q50.777,87.3,50,87.5A50,50,0,0,1,14.155,26.548q.2-.777.428-1.548A50,50,0,0,0,50,12.5" fill="none" stroke="#fff" stroke-linecap="round" stroke-linejoin="round" stroke-width="3"/>
    <path id="Path_12" data-name="Path 12" d="M50,41.667a4.167,4.167,0,1,1-4.167,4.167A4.167,4.167,0,0,1,50,41.667Z" fill="none" stroke="#fff" stroke-linecap="round" stroke-linejoin="round" stroke-width="3"/>
    <line id="Line_5" data-name="Line 5" y2="10.417" transform="translate(50 50)" fill="none" stroke="#fff" stroke-linecap="round" stroke-linejoin="round" stroke-width="3"/>
  </g>
</svg>
