<svg xmlns="http://www.w3.org/2000/svg" width="36" height="36" viewBox="0 0 36 36">
  <g id="Group_425" data-name="Group 425" transform="translate(-25 -539)">
    <rect id="Rectangle_190" data-name="Rectangle 190" width="36" height="36" rx="4" transform="translate(25 539)" fill="#31394e"/>
    <path id="bxs-widget" d="M5.156,9.253H9.092A.656.656,0,0,0,9.748,8.6V4.661A.656.656,0,0,0,9.092,4H5.156a.656.656,0,0,0-.656.656V8.6A.656.656,0,0,0,5.156,9.253Zm0,6.56H9.092a.656.656,0,0,0,.656-.656V11.221a.656.656,0,0,0-.656-.656H5.156a.656.656,0,0,0-.656.656v3.936A.656.656,0,0,0,5.156,15.813Zm6.56,0h3.936a.656.656,0,0,0,.656-.656V11.221a.656.656,0,0,0-.656-.656H11.716a.656.656,0,0,0-.656.656v3.936A.656.656,0,0,0,11.716,15.813ZM16.5,6.165,14.148,3.812a.655.655,0,0,0-.928,0L10.868,6.165a.655.655,0,0,0,0,.928l2.352,2.352a.655.655,0,0,0,.928,0L16.5,7.092a.655.655,0,0,0,0-.928Z" transform="translate(32.403 547.284)" fill="#fff"/>
  </g>
</svg>
