<svg xmlns="http://www.w3.org/2000/svg" width="36" height="36" viewBox="0 0 36 36">
  <g id="Group_424" data-name="Group 424" transform="translate(-25 -485)">
    <rect id="Rectangle_189" data-name="Rectangle 189" width="36" height="36" rx="4" transform="translate(25 485)" fill="#31394e"/>
    <g id="globe2" transform="translate(34.582 495.256)">
      <path id="Path_478" data-name="Path 478" d="M1,7.38h2.45a13.185,13.185,0,0,1,.43-2.96,8.978,8.978,0,0,1-1.54-.656A6.853,6.853,0,0,0,1,7.38ZM3,3a8.2,8.2,0,0,0,1.179.482,8.7,8.7,0,0,1,.473-1.061A6.593,6.593,0,0,1,5.241,1.5,6.9,6.9,0,0,0,3,3ZM7.872,0a7.872,7.872,0,1,0,7.872,7.872A7.872,7.872,0,0,0,7.872,0ZM7.38,1.06A3.462,3.462,0,0,0,5.523,2.885a7.515,7.515,0,0,0-.389.858,12.527,12.527,0,0,0,2.246.283Zm0,3.95a13.3,13.3,0,0,1-2.55-.327,12.147,12.147,0,0,0-.394,2.7H7.38Zm.984,2.37V5.01a13.3,13.3,0,0,0,2.55-.327,12.107,12.107,0,0,1,.394,2.7Zm-.984.984H4.438a12.058,12.058,0,0,0,.393,2.7,13.379,13.379,0,0,1,2.55-.326Zm.984,2.37V8.364h2.942a12.146,12.146,0,0,1-.393,2.7,13.378,13.378,0,0,0-2.55-.326Zm-.984.984A12.482,12.482,0,0,0,5.134,12a7.67,7.67,0,0,0,.389.858A3.469,3.469,0,0,0,7.38,14.684V11.719ZM5.242,14.241a6.588,6.588,0,0,1-.587-.918,8.715,8.715,0,0,1-.473-1.061A8.222,8.222,0,0,0,3,12.744a6.9,6.9,0,0,0,2.24,1.5Zm-2.9-2.26a8.911,8.911,0,0,1,1.54-.656,13.146,13.146,0,0,1-.43-2.96H1a6.853,6.853,0,0,0,1.34,3.616Zm8.16,2.26a6.9,6.9,0,0,0,2.239-1.5,8.22,8.22,0,0,0-1.178-.482,8.718,8.718,0,0,1-.473,1.061,6.581,6.581,0,0,1-.587.918ZM10.61,12a12.428,12.428,0,0,0-2.246-.282v2.966a3.462,3.462,0,0,0,1.857-1.825A7.515,7.515,0,0,0,10.61,12Zm1.252-.677a8.911,8.911,0,0,1,1.54.656,6.853,6.853,0,0,0,1.34-3.616h-2.45a13.141,13.141,0,0,1-.43,2.96Zm.43-3.944h2.45A6.852,6.852,0,0,0,13.4,3.764a8.911,8.911,0,0,1-1.54.656A13.182,13.182,0,0,1,12.292,7.38Zm-.728-3.9a8.712,8.712,0,0,0-.475-1.062A6.585,6.585,0,0,0,10.5,1.5,6.9,6.9,0,0,1,12.741,3a8.234,8.234,0,0,1-1.178.482Zm-.955.26a12.526,12.526,0,0,1-2.246.283V1.06A3.462,3.462,0,0,1,10.22,2.885,7.515,7.515,0,0,1,10.609,3.743Z" fill="#fff" fill-rule="evenodd"/>
    </g>
  </g>
</svg>
