<svg xmlns="http://www.w3.org/2000/svg" width="36" height="36" viewBox="0 0 36 36">
  <g id="Group_419" data-name="Group 419" transform="translate(-25 -123)">
    <rect id="Rectangle_189" data-name="Rectangle 189" width="36" height="36" rx="4" transform="translate(25 123)" fill="#31394e"/>
    <path id="Union_1" data-name="Union 1" d="M-3864.4,20.53V19.064h3.666v-3.3h-9.165a1.1,1.1,0,0,1-1.1-1.1V1.1a1.1,1.1,0,0,1,1.1-1.1h19.8a1.1,1.1,0,0,1,1.1,1.1V14.664a1.1,1.1,0,0,1-1.1,1.1h-9.166v3.3h3.667V20.53Zm-5.133-6.232h19.065V1.466h-19.064Zm5.261-1.19a.529.529,0,0,1-.529-.529.529.529,0,0,1,.529-.529h7.4a.528.528,0,0,1,.528.529.528.528,0,0,1-.528.529Zm-.529-2.115V9.407l5.287-5.287,1.585,1.586-5.286,5.287Zm5.816-7.4,1.057-1.057,1.586,1.585-1.057,1.058Z" transform="translate(3903 131)" fill="#fff"/>
  </g>
</svg>
