<svg xmlns="http://www.w3.org/2000/svg" width="36" height="36" viewBox="0 0 36 36">
  <g id="Group_420" data-name="Group 420" transform="translate(-25 -177)">
    <rect id="Rectangle_189" data-name="Rectangle 189" width="36" height="36" rx="4" transform="translate(25 177)" fill="#31394e"/>
    <g id="notification-new" transform="translate(32.627 184.875)">
      <path id="Path_504" data-name="Path 504" d="M16.681,10.729v-1.5H15.524v1.736a.527.527,0,0,0,.173.4l1.562,1.562v.926H4.531v-.926l1.562-1.562a.527.527,0,0,0,.173-.4V8.068A4.629,4.629,0,0,1,10.9,3.439a4.564,4.564,0,0,1,2.314.63V2.745a5.618,5.618,0,0,0-1.736-.463V1.125H10.317V2.282A5.873,5.873,0,0,0,5.11,8.068v2.661L3.547,12.292a.527.527,0,0,0-.173.4v1.736a.544.544,0,0,0,.579.579H8a2.893,2.893,0,0,0,5.786,0h4.05a.544.544,0,0,0,.579-.579V12.7a.527.527,0,0,0-.173-.4ZM10.9,16.746A1.736,1.736,0,0,1,9.16,15.011h3.471A1.736,1.736,0,0,1,10.9,16.746Z" fill="#fff"/>
      <path id="Path_505" data-name="Path 505" d="M29.379,6.814A2.314,2.314,0,1,1,27.064,4.5,2.314,2.314,0,0,1,29.379,6.814Z" transform="translate(-10.383 -1.639)" fill="#fff"/>
    </g>
  </g>
</svg>
