<svg xmlns="http://www.w3.org/2000/svg" width="36" height="36" viewBox="0 0 36 36">
  <g id="Group_422" data-name="Group 422" transform="translate(-25 -285)">
    <rect id="Rectangle_189" data-name="Rectangle 189" width="36" height="36" rx="4" transform="translate(25 285)" fill="#31394e"/>
    <g id="language" transform="translate(32.875 292.312)">
      <path id="Path_508" data-name="Path 508" d="M13.161,1.688H1.125V13.724H8.093v6.652H20.13V8.339H13.161Zm-6.8,2.85L4.375,10.212H5.718l.323-.922H8.093v3.167h-5.7v-9.5h9.5V8.34H9.255l-1.331-3.8ZM7.8,8.023H6.486l.658-1.879ZM18.863,9.606v9.5H9.36v-9.5Z" fill="#fff"/>
      <path id="Path_509" data-name="Path 509" d="M21.169,22.7a5.415,5.415,0,0,0,.4.559A3.247,3.247,0,0,1,20,23.631V24.9a4.43,4.43,0,0,0,2.534-.746,4.433,4.433,0,0,0,2.535.746V23.631a3.247,3.247,0,0,1-1.565-.372,5.408,5.408,0,0,0,.4-.559,6.581,6.581,0,0,0,.8-1.92h.687V19.513H23.172v-.951H21.9v.951H19.687V20.78h.686a6.581,6.581,0,0,0,.8,1.92Zm2.221-1.92a5.266,5.266,0,0,1-.558,1.248,4.133,4.133,0,0,1-.294.414,4.1,4.1,0,0,1-.274-.382,5.241,5.241,0,0,1-.579-1.279Z" transform="translate(-8.11 -7.372)" fill="#fff"/>
    </g>
  </g>
</svg>
