<svg xmlns="http://www.w3.org/2000/svg" width="36" height="36" viewBox="0 0 36 36">
  <g id="Group_426" data-name="Group 426" transform="translate(-25 -593)">
    <rect id="Rectangle_191" data-name="Rectangle 191" width="36" height="36" rx="4" transform="translate(25 593)" fill="#31394e"/>
    <g id="notification-new" transform="translate(35.811 604.732)">
      <path id="Path_479" data-name="Path 479" d="M14.69,9.292V8.013h-.984V9.489a.448.448,0,0,0,.147.344l1.329,1.329v.787H4.358v-.787L5.686,9.833a.448.448,0,0,0,.147-.344V7.029A3.936,3.936,0,0,1,9.77,3.093a3.881,3.881,0,0,1,1.968.536V2.5a4.777,4.777,0,0,0-1.476-.394V1.125H9.278v.984A4.994,4.994,0,0,0,4.85,7.029V9.292L3.521,10.621a.448.448,0,0,0-.147.344v1.476a.462.462,0,0,0,.492.492H7.31a2.46,2.46,0,0,0,4.92,0h3.444a.462.462,0,0,0,.492-.492V10.965a.448.448,0,0,0-.147-.344ZM9.77,14.409a1.476,1.476,0,0,1-1.476-1.476h2.952A1.476,1.476,0,0,1,9.77,14.409Z" transform="translate(-3.373 -1.125)" fill="#fff"/>
      <path id="Path_480" data-name="Path 480" d="M28.686,6.468A1.968,1.968,0,1,1,26.718,4.5,1.968,1.968,0,0,1,28.686,6.468Z" transform="translate(-15.401 -3.024)" fill="#fff"/>
    </g>
  </g>
</svg>
