<?xml version="1.0" standalone="no"?>
<!DOCTYPE svg PUBLIC "-//W3C//DTD SVG 20010904//EN"
 "http://www.w3.org/TR/2001/REC-SVG-20010904/DTD/svg10.dtd">
<svg version="1.0" xmlns="http://www.w3.org/2000/svg"
 width="512.000000pt" height="512.000000pt" viewBox="0 0 512.000000 512.000000"
 preserveAspectRatio="xMidYMid meet">
<metadata>
Created by potrace 1.16, written by Peter Selinger 2001-2019
</metadata>
<g transform="translate(0.000000,512.000000) scale(0.100000,-0.100000)"
fill="#000000" stroke="none">
<path d="M1909 5091 c-27 -17 -53 -44 -65 -67 -19 -38 -19 -89 -19 -2464 l0
-2425 22 -42 c15 -26 39 -52 66 -68 l44 -25 603 0 603 0 44 25 c27 16 51 42
66 68 l22 42 0 2425 0 2425 -22 42 c-15 26 -39 52 -66 68 l-44 25 -604 0 -605
0 -45 -29z"/>
<path d="M3752 3639 c-46 -23 -72 -55 -90 -108 -19 -54 -16 -3362 2 -3414 18
-48 41 -74 88 -98 35 -18 68 -19 639 -19 l601 0 40 22 c22 13 51 41 64 64 l24
41 0 1697 c0 1418 -2 1702 -14 1729 -16 39 -61 82 -99 96 -19 7 -226 11 -620
11 -582 0 -593 0 -635 -21z"/>
<path d="M105 3096 c-37 -17 -80 -62 -94 -99 -8 -20 -11 -469 -11 -1449 l0
-1420 22 -40 c13 -22 41 -51 64 -64 l41 -24 602 0 c579 0 603 1 640 20 48 24
78 60 91 110 7 25 9 515 8 1447 l-3 1409 -28 42 c-15 23 -45 51 -67 62 -38 19
-57 20 -637 20 -477 -1 -604 -3 -628 -14z"/>
</g>
</svg>
