<?xml version="1.0" standalone="no"?>
<!DOCTYPE svg PUBLIC "-//W3C//DTD SVG 20010904//EN"
 "http://www.w3.org/TR/2001/REC-SVG-20010904/DTD/svg10.dtd">
<svg version="1.0" xmlns="http://www.w3.org/2000/svg"
 width="512.000000pt" height="512.000000pt" viewBox="0 0 512.000000 512.000000"
 preserveAspectRatio="xMidYMid meet">

<g transform="translate(0.000000,512.000000) scale(0.100000,-0.100000)"
fill="#000000" stroke="none">
<path d="M2245 4503 c-493 -12 -1129 -55 -1320 -88 -308 -54 -610 -282 -754
-571 -73 -146 -110 -325 -146 -709 -52 -551 -10 -1399 86 -1710 60 -196 201
-392 378 -526 82 -61 234 -140 323 -168 158 -48 632 -87 1368 -112 667 -23
1820 34 2090 102 88 22 233 90 322 150 137 93 274 247 350 395 57 111 84 196
108 349 92 576 92 1313 0 1890 -42 263 -117 419 -288 597 -127 132 -293 237
-454 286 -235 73 -1335 134 -2063 115z m-603 -645 c71 -33 138 -101 175 -176
28 -57 28 -58 28 -257 0 -227 -7 -264 -66 -355 -43 -67 -108 -119 -189 -152
-51 -21 -71 -23 -255 -23 -188 0 -204 1 -260 24 -84 34 -174 124 -204 206 -20
52 -23 78 -22 200 1 77 6 167 11 200 21 131 114 256 234 315 86 43 128 49 321
47 162 -2 173 -3 227 -29z m1639 -1409 c75 -38 114 -113 107 -205 -6 -72 -44
-126 -113 -160 l-53 -25 -1108 3 c-1250 4 -1158 -2 -1229 81 -104 121 -41 300
114 326 19 3 531 4 1140 3 1054 -4 1107 -5 1142 -23z m-1438 -755 c334 -6 350
-7 390 -28 81 -43 122 -139 103 -241 -8 -40 -64 -108 -107 -131 -34 -17 -388
-19 -874 -4 l-320 10 -55 28 c-128 64 -166 221 -77 318 55 60 82 64 352 59
132 -3 397 -8 588 -11z"/>
</g>
</svg>
