<svg xmlns="http://www.w3.org/2000/svg" xmlns:xlink="http://www.w3.org/1999/xlink" width="100" height="100" viewBox="0 0 100 100">
  <defs>
    <clipPath id="clip-path">
      <rect id="Rectangle_10" data-name="Rectangle 10" width="75" height="50.721" fill="#fff"/>
    </clipPath>
  </defs>
  <g id="vir_card" data-name="vir card" transform="translate(-209 -1092)">
    <path id="Path_13" data-name="Path 13" d="M0,0H100V100H0Z" transform="translate(209 1092)" fill="none"/>
    <g id="Group_16" data-name="Group 16" transform="translate(221.5 1116.64)">
      <g id="Group_15" data-name="Group 15" transform="translate(0 0)" clip-path="url(#clip-path)">
        <path id="Path_14" data-name="Path 14" d="M0,46.014V4.561a.656.656,0,0,0,.119-.173A5.48,5.48,0,0,1,5.959,0Q36.783,0,67.608,0c.659,0,1.318-.01,1.976.007a5.439,5.439,0,0,1,5.4,5.428q.031,19.915,0,39.83a5.044,5.044,0,0,1-2.945,4.783,7.161,7.161,0,0,1-3.025.641q-31.52.053-63.04.027c-.219,0-.439,0-.659-.009a5.475,5.475,0,0,1-5.039-3.8c-.1-.3-.183-.6-.274-.895M13.474,15.228c-1.559,0-3.119-.009-4.679,0A1.59,1.59,0,0,0,7,17.036q-.019,3.29,0,6.58a1.6,1.6,0,0,0,1.793,1.819q4.643.031,9.286,0a1.633,1.633,0,0,0,1.815-1.819q.024-3.29,0-6.58a1.624,1.624,0,0,0-1.814-1.805c-1.535-.012-3.07,0-4.606,0m8.406,28.2H34.545c1.454,0,2.23-.575,2.208-1.633-.02-1.034-.783-1.589-2.192-1.589q-12.7,0-25.4,0a4.613,4.613,0,0,0-.873.056,1.536,1.536,0,0,0-1.279,1.626c.031.957.7,1.533,1.843,1.535q6.515.011,13.031,0M57.562,12.654h1.611c2.366,0,4.732.011,7.1-.007a1.582,1.582,0,0,0,1.7-1.878C67.839,9.9,67.154,9.424,66,9.423q-8.38-.005-16.76,0a3.3,3.3,0,0,0-.725.067,1.559,1.559,0,0,0-1.231,1.8,1.584,1.584,0,0,0,1.785,1.359c2.83.009,5.66,0,8.49,0M41.237,36.248c1.171,0,2.343.012,3.514,0a1.625,1.625,0,1,0,0-3.225q-3.513-.025-7.028,0a1.661,1.661,0,0,0-1.8,1.618,1.64,1.64,0,0,0,1.8,1.605c1.171.017,2.343,0,3.514,0m-28.991,0c1.171,0,2.342.008,3.512,0s1.864-.607,1.873-1.589a1.635,1.635,0,0,0-1.841-1.637q-3.477-.021-6.954,0a1.616,1.616,0,0,0-1.831,1.642c.009.963.68,1.568,1.8,1.583,1.147.016,2.293,0,3.441,0m14.5,0c1.2,0,2.391.014,3.587,0a1.615,1.615,0,1,0,.038-3.219q-3.587-.039-7.173,0a1.615,1.615,0,1,0,.035,3.219c1.171.018,2.342,0,3.513,0m28.995,0c1.172,0,2.343.013,3.514,0a1.622,1.622,0,1,0,.005-3.223q-3.515-.029-7.029,0a1.626,1.626,0,1,0,0,3.225c1.171.014,2.342,0,3.514,0" transform="translate(0 0)" fill="#fff"/>
      </g>
    </g>
  </g>
</svg>
