<svg id="wallet" xmlns="http://www.w3.org/2000/svg" xmlns:xlink="http://www.w3.org/1999/xlink" width="100" height="100" viewBox="0 0 100 100">
  <defs>
    <clipPath id="clip-path">
      <rect id="Rectangle_1" data-name="Rectangle 1" width="100" height="100" fill="none" stroke="#fff" stroke-width="3"/>
    </clipPath>
  </defs>
  <g id="Group_1" data-name="Group 1" clip-path="url(#clip-path)">
    <path id="Path_1" data-name="Path 1" d="M70.834,33.334v-12.5a4.167,4.167,0,0,0-4.167-4.167H25a8.333,8.333,0,0,0,0,16.667H75A4.166,4.166,0,0,1,79.167,37.5V50m0,16.667v12.5A4.167,4.167,0,0,1,75,83.334H25A8.333,8.333,0,0,1,16.667,75V25" fill="none" stroke="#fff" stroke-linecap="round" stroke-linejoin="round" stroke-width="3"/>
    <path id="Path_2" data-name="Path 2" d="M83.333,50V66.667H66.666a8.333,8.333,0,0,1,0-16.667H83.333" fill="none" stroke="#fff" stroke-linecap="round" stroke-linejoin="round" stroke-width="3"/>
  </g>
</svg>
