<?xml version="1.0" standalone="no"?>
<!DOCTYPE svg PUBLIC "-//W3C//DTD SVG 20010904//EN"
 "http://www.w3.org/TR/2001/REC-SVG-20010904/DTD/svg10.dtd">
<svg version="1.0" xmlns="http://www.w3.org/2000/svg"
 width="512.000000pt" height="512.000000pt" viewBox="0 0 512.000000 512.000000"
 preserveAspectRatio="xMidYMid meet">
<metadata>
Created by potrace 1.16, written by Peter Selinger 2001-2019
</metadata>
<g transform="translate(0.000000,512.000000) scale(0.100000,-0.100000)"
fill="#000000" stroke="none">
<path d="M1050 4544 c-262 -56 -448 -231 -523 -494 -48 -165 -47 -145 -47
-1625 0 -1339 1 -1396 19 -1454 46 -147 172 -272 320 -315 49 -14 231 -16
1741 -16 1510 0 1692 2 1741 16 148 43 274 168 320 315 18 58 19 111 19 1270
0 1198 0 1210 -21 1272 -52 155 -179 274 -336 316 l-43 12 0 163 c0 133 -4
176 -19 225 -46 147 -172 272 -320 315 -49 14 -202 16 -1420 15 -1129 0 -1377
-3 -1431 -15z m2753 -318 c91 -33 110 -74 115 -248 l4 -138 -1551 0 c-853 0
-1551 3 -1551 8 1 32 35 143 59 190 59 115 157 177 303 191 46 5 646 9 1333 9
1031 1 1257 -1 1288 -12z m47 -1699 c77 -28 169 -121 198 -200 29 -77 29 -176
1 -254 -30 -80 -122 -172 -202 -202 -78 -28 -177 -28 -254 1 -80 29 -172 121
-201 201 -47 126 -21 263 69 362 104 113 242 146 389 92z"/>
</g>
</svg>
